<svg width="1200" height="599" viewBox="0 0 1200 599" xmlns="http://www.w3.org/2000/svg"><g fill="#fff" fill-rule="nonzero" opacity=".02"><path d="M-195.535 105.946C-111.08 93.54-32.045 112.304.009 172.34c-2.59-47.035-57.489-97.77-147.737-96.828-85.46.889-119.949 15.348-188.96-1.527 0 0-8.483 16.242-16.082 33.465 33.474 7.396 72.78 10.903 157.235-1.503z"/><path d="M399.156 165.18c-1.932-3.865-16.068-9.552-25.715-22.663-7.087-9.633-14.368-22.367-16.131-26.242-.58-1.27-6.585.759-11.16 2.015 3.382 12.497 6.628 19.41 13.044 39.483-.483.667-25.962 1.3-88.33-4.019-102.949-8.788-151.568-16.966-210.337 4.773-45.629 16.909-46.783 38.378-49.276 39.807-2.387 1.358-2.15 1.498-11.227 1.252-9.083.246-8.846.106-11.232-1.252-2.513-1.449-3.667-22.918-49.277-39.807-58.769-21.74-107.383-13.575-210.327-4.787-62.373 5.314-87.876 4.686-88.33 4.019 6.41-20.073 9.662-26.986 13.044-39.484-4.58-1.256-10.585-3.285-11.16-2.014-1.763 3.864-9.048 16.609-16.136 26.242-9.695 13.125-23.836 18.797-25.754 22.676-2.488 5.02.261 16.324 11.397 18.049 13.043 2.02 220.206-1.12 260.299 1.88 40.092 3 86.552 13.869 87.924 16.748 1.372 2.88 1.503 22.484 39.547 22.484s38.165-19.604 39.546-22.484c1.382-2.879 47.827-13.749 87.925-16.749 40.097-3 247.27.14 260.299-1.88 11.101-1.724 13.855-13.028 11.367-18.048z"/><path d="M195.544 105.946c84.455 12.406 123.756 8.9 157.234 1.488-7.599-17.222-16.082-33.464-16.082-33.464-69.016 16.909-103.504 2.416-188.955 1.541C57.498 74.57 2.59 125.304.01 172.34c32.044-60.035 111.08-78.799 195.535-66.393z"/><g><path d="M1004.46 105.946c84.456-12.406 163.491 6.358 195.545 66.393-2.59-47.035-57.489-97.77-147.737-96.828-85.46.889-119.949 15.348-188.96-1.527 0 0-8.483 16.242-16.082 33.465 33.474 7.396 72.779 10.903 157.234-1.503z"/><path d="M1599.152 165.18c-1.932-3.865-16.068-9.552-25.715-22.663-7.088-9.633-14.368-22.367-16.131-26.242-.58-1.27-6.585.759-11.16 2.015 3.382 12.497 6.628 19.41 13.044 39.483-.483.667-25.962 1.3-88.33-4.019-102.949-8.788-151.568-16.966-210.337 4.773-45.629 16.909-46.784 38.378-49.276 39.807-2.387 1.358-2.15 1.498-11.228 1.252-9.082.246-8.845.106-11.232-1.252-2.512-1.449-3.666-22.918-49.276-39.807-58.769-21.74-107.383-13.575-210.327-4.787-62.373 5.314-87.876 4.686-88.33 4.019 6.41-20.073 9.662-26.986 13.043-39.484-4.58-1.256-10.584-3.285-11.16-2.014-1.762 3.864-9.048 16.609-16.135 26.242-9.695 13.125-23.836 18.797-25.754 22.676-2.488 5.02.261 16.324 11.397 18.049 13.043 2.02 220.206-1.12 260.299 1.88 40.092 3 86.552 13.869 87.924 16.748 1.372 2.88 1.502 22.484 39.547 22.484 38.044 0 38.165-19.604 39.546-22.484 1.382-2.879 47.827-13.749 87.924-16.749 40.098-3 247.27.14 260.3-1.88 11.101-1.724 13.855-13.028 11.367-18.048z"/></g><g><path d="M404.46 405.976c84.456-12.406 163.491 6.358 195.545 66.393-2.59-47.035-57.489-97.77-147.737-96.828-85.46.889-119.949 15.348-188.96-1.527 0 0-8.483 16.242-16.082 33.465 33.474 7.396 72.779 10.903 157.234-1.503z"/><path d="M999.152 465.21c-1.932-3.865-16.068-9.552-25.715-22.663-7.088-9.633-14.368-22.367-16.131-26.242-.58-1.27-6.585.759-11.16 2.015 3.382 12.497 6.628 19.41 13.044 39.483-.483.667-25.962 1.3-88.33-4.019-102.949-8.788-151.568-16.966-210.337 4.773-45.629 16.909-46.784 38.378-49.276 39.807-2.387 1.358-2.15 1.498-11.228 1.252-9.082.246-8.845.106-11.232-1.252-2.512-1.449-3.666-22.918-49.276-39.807-58.769-21.74-107.383-13.575-210.327-4.787-62.373 5.314-87.876 4.686-88.33 4.019 6.41-20.073 9.662-26.986 13.043-39.484-4.58-1.256-10.584-3.285-11.16-2.014-1.762 3.864-9.048 16.609-16.135 26.242-9.695 13.125-23.836 18.797-25.754 22.676-2.488 5.02.261 16.324 11.397 18.049 13.043 2.02 220.206-1.12 260.299 1.88 40.092 3 86.552 13.869 87.924 16.748 1.372 2.88 1.502 22.484 39.547 22.484 38.044 0 38.165-19.604 39.546-22.484 1.382-2.879 47.827-13.749 87.924-16.749 40.098-3 247.27.14 260.3-1.88 11.101-1.724 13.855-13.028 11.367-18.048z"/><path d="M795.54 405.976c84.455 12.406 123.756 8.9 157.234 1.488C945.175 390.242 936.692 374 936.692 374c-69.016 16.909-103.504 2.416-188.955 1.541-90.243-.942-145.152 49.793-147.732 96.828 32.044-60.035 111.08-78.799 195.535-66.393z"/></g></g></svg>