<svg class="logo" data-name="logo" xmlns="http://www.w3.org/2000/svg" viewBox="0 0 1668.63 1115.18"><path d="M1382.31 715.05c-81.15 0-162.3-.17-243.45.09-26.35.09-52.46 3.71-78.56 7.19-46.68 6.22-92.23 17.47-137.57 29.79-5.69 1.55-9.21 4.47-11.28 10.47-6.48 18.79-19.6 30.46-39.4 34.24-19.16 3.66-38.49 3-57.79 2.37-11.47-.4-23-1-33.92-5.19-16.27-6.22-27.36-16.92-29.7-34.9-.63-4.8-2.74-6.87-7.54-8.17-38.78-10.51-78.08-18.47-117.69-25.07-53.25-8.87-106.9-11.19-160.78-11.06q-210.7.51-421.42.41c-10.12 0-20.37.83-29.12-6.12-8.3-6.6-13.54-14.34-12.39-25.62.86-8.44 6.44-12.91 12.83-16.65a153 153 0 0 0 47.77-44A328 328 0 0 0 90.08 576c1.3-2.67 2.43-2.8 4.84-2 5.49 1.89 10.76 4.47 16.57 5.46 3.47.59 1.36 2.63.86 4.1q-12.51 36.89-25 73.77c-1.78 5.26-1.66 5.28 4.09 5.09 29.31-1 58.61-2.24 87.93-2.69 8.74-.13 17.5-.41 26.13-1.19 11.5-.98 23.14-1.54 34.71-2.54 9.58-.85 19.26-1.39 28.82-2.42 8.52-.93 17.1-1.46 25.63-2.74 14.22-2.15 28.63-3.11 43-4.55 53.21-5.35 106.44-10.65 159.9-12.82 42.4-1.73 84.66-.47 126.4 8.1 36.25 7.45 72 16.64 105.69 32.5 14 6.6 27.62 14 40.16 23.24a92.84 92.84 0 0 1 31.88 41.4c2.86 7.24 7.17 10.33 14.94 10 10.48-.44 21-.12 31.49-.11 4.21 0 7.49-1.46 9-5.68 10.73-29.94 34.09-47.26 61.11-60.72a447.7 447.7 0 0 1 129.38-41.26c59.81-9.62 119.8-9.48 179.91-3.66 56 5.44 112.07 11 168.14 16.2q68.19 6.32 136.71 7.39c17 .29 34 .46 51 1 4.88.15 4.94-1.37 3.67-5.36-8.23-25.85-17.86-51.24-25.48-77.29-1-3.57-.55-5.07 2.93-6.07s6.85-1.89 9.79-3.65c4-2.4 5.26-.77 6.79 2.77a302 302 0 0 0 19.85 38.05c10 16.23 20.52 32 35.89 43.81a122.63 122.63 0 0 0 19.48 12.11c12.33 6.24 16.76 24.14 5.7 35.7-7.52 7.87-16.35 12.93-27.16 12.95q-126.23.24-252.45.09zM1139.72 461.12c-51.9-1.27-101.13-13.58-144.88-43.33-44.13-30-71.79-71.79-83.42-123.71-9.72-43.43-8.35-86.76 5.51-129.26A218.46 218.46 0 0 1 971.85 76C1023 25.48 1085.43 2.16 1156.42.07c25-.73 49.33 4.31 73.6 9.85 21.62 4.94 42.32 12.88 63.7 18.58 2 .53 2.94 1.43 3 3.75 1.1 30.85 6.41 61.27 9.72 91.9.47 4.3.81 8.63 1.49 12.9.35 2.21-.44 3-2.41 3.45-7.63 1.74-15.27 3.45-22.84 5.43-3.55.93-3.35-1.57-3.87-3.55-4.91-18.41-10.55-36.55-21.81-52.27-22.91-31.94-54.39-48.79-93.31-51.76-39.48-3-72.49 11.48-100 39-17.14 17.12-28.91 37.73-37.29 60.48-18.66 50.67-23.31 102.51-12.54 155.34 7.2 35.26 22 67.16 48.84 92.1 29.28 27.18 63.43 41.72 104.16 37.8 25.32-2.44 47.57-12.3 67.09-28.29 25.07-20.56 42.51-46.63 53.77-76.88 1.55-4.15 3.15-4.81 7.18-2.9 6.75 3.2 13.81 5.77 20.82 8.38 2.46.92 2.82 1.87 2 4.36-12.72 37-27.15 73.39-37.91 111-.56 1.94-1.26 3.08-3.55 3.41-36.24 5.3-71.92 14.15-108.49 17.38-9.19.83-18.36 1.06-28.05 1.59zM741.56 294.06a.47.47 0 0 1-.68-.41c-.68-2.89-2.59-3.93-5.42-3.57h-.4l-.18-.35c-4.64-6-11-9.1-18.21-10.72a.57.57 0 0 1-.79-.39c-.72-2.83-2.8-3.48-5.37-3.32l.09.07c-.32-2.64-2.24-2.42-4.11-2.31h-.37l-.23-.29c-4.16-5.42-10-8-16.4-9.42l.39-.16-.37.19c-2.55-5.44-8.36-6.67-12.85-9.18q-21.21-11.87-41.07-25.76c-2.42-1.7-4.52-4.53-8.13-4l.15-.23-.2.19c-.53-3.14-2.45-4.54-5.56-4.46.19-4.22-2.77-4.74-5.92-5.05-.35-.32-.7-.64-1.06-.95a4.82 4.82 0 0 0-1.62-3.93c-11.82-12.26-21.65-25.86-26.86-42.28-2.49-7.86-5.58-15.83-6.21-23.92-1.34-17.09.13-34.06 6.3-50.44 1.75-4.65 5-9 4.39-14.45 1.41 0 2-1 2.62-2 3.09-4.58 6.12-9.2 9.3-13.71 5.62-8 11.28-15.84 19.06-22.09 3.85-3.09 8.88-5.18 11-10.21 6.14-2 11.73-4.91 16-9.88l.2-.28.33.05c1 .07 2 0 2.35-1.14l-.12.08c2 .52 3.55-.47 5.19-1.29a159.14 159.14 0 0 1 57.55-16.19c18.69-1.7 37.47.2 55.79 4.45 19.34 4.49 38.58 9.4 57.42 15.84 4.73 1.62 6.61 3.56 6.32 8.31-.73 12.47.43 24.94 1.29 37.31 1.21 17.36.8 34.79 2.68 52.09.25 2.29-.5 4-2.88 4.5q-8.51 1.69-17.06 3.15c-2.5.44-4.18-.21-4.16-3.3a23.15 23.15 0 0 0-.93-4.86c-3-14.28-6.6-28.37-14.53-40.91-1.22-1.94-2.07-4.25-4.88-4.4l.29-.3-.32.26c.59-1.63-.13-2.3-1.71-2.35-.28-.32-.55-.65-.83-1-.05-4-2.55-6-6.06-7h.05L783.76 63l-.92-.94c-.68-2.83-2-5-5.38-4.65l.26-.29-.22.32c.1-2-1.46-3-2.73-3.89-9.83-7.28-20.63-12.72-32.63-15.12-3.21-.65-6.87-3.18-10.36-.27l-1.89-.16c-.39-.29-.77-.81-1.18-.84-18.71-1.59-35.65 3.57-50.81 14.47-2.11 1.52-4.84 3.19-4.93 6.51-1.67-.34-2.79.45-3.88 1.65a55 55 0 0 0-10.76 16.63c-6.83 17.53-3.62 34.08 6.47 49.51 5.65 8.62 14.12 14.29 22.27 20.18 14 10.07 29.59 17.41 44 26.75 3.49 2.26 7.43 5.06 12.17 5.05l.35-.05.19.3c.83 4 4.94 3.33 7.4 5 11.67 7.86 24.37 14 36.46 21.13a5.6 5.6 0 0 0 3.83.55l.32.17c.11 2.05 1.56 2.06 3 2 .43 2.5 2.16 2.94 4.31 2.71l-.07-.06c1.45 3.51 4.18 5.12 7.88 5.28-.07 2.19 1.42 2.17 3 2.1.25 4.1 4.29 4.19 6.56 6.15 13.85 12 26.87 24.72 36.44 40.52 5.94 9.81 9.87 20.46 13.08 31.48 3.36 11.55 3 23.3 2.82 35.05a103.15 103.15 0 0 1-9.29 40.76c-2.23 5-6.2 9.41-6.38 15.3l.05-.05c-2.69-.36-3.13 2.08-4.18 3.54-6.32 8.8-12.3 17.88-20.71 24.92a3.44 3.44 0 0 0-1.35 3.41c-1 0-1.82.12-1.68 1.42l-.29-.31.27.32c-3.2-.71-4.24 1.5-5.19 3.83l.07-.06c-2.19-.42-3.14.68-3.31 2.71-5.09-.29-7.8 4.06-11.48 6.28-12.24 7.4-24.49 14.56-38.47 18.26-1.93.51-4.49.51-5.06 3.3l-3 .87c-2-.87-4-1.83-5 1.2l-1.31.26c-1-.12-2-.17-2.67.74-.7.43-1.39.89-2.25.41-7.36-.62-14.22 2.23-21.35 3.21-4.45.62-9.38-.85-13.39 2.34l-2.21.07a27.28 27.28 0 0 0-7.85-1 286.75 286.75 0 0 1-36.03-2.97c-6.2-.89-12.12-3.49-18.54-2.88h-.27c-5.47-2.28-10.73-5.39-17-4.27l-2-.46c-.6-1.75-1.62-1.8-2.92-.71l-2.08-.56c-.33-1-1-2-2-2-5.37-.06-10.35-1.85-15.45-3.16-8-2.06-16.23-2.94-24.4-4-2.64-.36-4.24-1.37-4.17-4.42.25-10.78-1.69-21.49-1-32.29.62-9.14-.5-18.25-1.26-27.28-1.54-18.28-4-36.48-3.78-54.87l2.33-.31c1 .14 2 .2 2.68-.72 5.57-2.77 11.76-3.33 17.66-4.95 2.57-.71 2.39.81 2.84 2.54 5 19.65 10 39.33 20.12 57.16 19.41 34.23 56.92 53.06 96.12 48.8a212.45 212.45 0 0 0 21.51-3.91c1.1.2 2.13.23 2.66-1l-.14.08c3.1.58 5.49-.35 7-3.23l-.1.08c1.68.51 2.72-.2 3.32-1.75h-.06c1.78 0 3.64.18 3.75-2.4l.17.23-.22-.18a8.47 8.47 0 0 0 8.11-5.93h-.05c5.86-1 8.5-5.15 10.17-10.28v-.3l.25-.03c5.44-2.22 6.92-7 7.78-12.15l-.06.09c5.28-7 8.07-14.77 6.89-23.67-.62-.79-.22-1.51.14-2.23 2.69-7.21 1-14.24-1.52-21-1.31-3.48-1.49-7.94-5.65-9.93l.08.12c.25-1.69-.31-2.81-2.12-3.07l.08.1c-1-6-6.4-12.21-11.74-13.29-2.49-5.28-7-8-12.31-9.71l.09.07c-.49-2.55-2.25-3.39-4.62-3.42l-.11-.07c-.62-2.94-2.47-4.11-5.37-3.78zM485.88 442.25a4.08 4.08 0 0 1-3.09.43c-5.16-2-10.14-.05-15.08.91-9.7 1.88-19.29 4.38-29 6.28-10.53 2.05-21.19 3.45-31.7 5.6-13.71 2.81-27.51 5.21-41.48 5.33-14.74.13-29.46.65-44.27-1.51-10.75-1.58-21.4-3.22-32-5.47-8.11-1.72-15.85-4.4-23.76-6.63a152 152 0 0 1-25.9-9.62c-12.25-6-24.4-12.34-35.79-20.06a224.83 224.83 0 0 1-43.34-37.6c-6.54-7.45-13.33-14.91-18-23.61-4.83-8.9-9.71-17.78-13.43-27.39-5.18-13.36-9.84-26.82-12.85-40.74a177.32 177.32 0 0 1-4-40.42 301.19 301.19 0 0 1 5.08-49.75c3-16 9.2-30.71 14.49-45.71 5.64-16 15.63-30.15 25.35-44.21 3.54-5.12 8.67-9.13 10.73-15.27l.84-.88c6.18-2.78 9.85-8.27 14.06-13.16.33-.38 0-1.28 0-1.94v.06a4.21 4.21 0 0 0 3.71-1c4.76-4.31 9.73-8.4 14.23-13 1.48-1.49 4.53-2.07 4.09-5.16l-.05.06c4.74 0 7.89-3.51 11-6C227.47 42.13 241 35.6 254.47 29.1c15.16-7.31 31-12.87 47.2-17.78 17-5.15 34.25-7.51 51.78-8.21a205.88 205.88 0 0 1 29.88.7c14.16 1.49 28.37 2.45 42.18 6.16 12.44 3.34 25.07 5.9 37.4 9.81 12.6 4 26 5.59 37.75 12.2l.13 2c-1.89 5.84-1.35 11.92-.58 17.68 2 14.89 2.82 29.89 4.7 44.78 1.55 12.27 3 24.55 4.7 36.79.43 3.08-.41 5-3.25 5.69a112.78 112.78 0 0 1-13.52 2.94c-6.44.82-7.84-.55-8.89-7.29a17.12 17.12 0 0 0-.56-3.4c-4.15-10.73-8.09-21.55-12.66-32.1-2.88-6.63-6.78-12.81-13.17-16.87l.08.09c-1.46-7.79-8.42-11.23-13.39-15.89-9.82-9.14-21.62-15.4-34.14-20.4-10.84-4.28-22-7.81-33.51-8.86a120.35 120.35 0 0 0-64.08 11.66 132.94 132.94 0 0 0-29.12 19.35c-3 2.62-7.88 4.12-9.37 6.94-4 7.57-11.58 11.82-15.64 19.06-2.11 3.77-5.61 6.8-7.48 10.34-2.48 4.67-7.44 8.38-7 14.47l-.84 1.22.07-.06c-3.82.62-3.09 3.56-3.13 6.11a.71.71 0 0 1-.13.72c-.28.4-.55.81-.83 1.22l.08-.07c-4.75 4.32-6.77 9.84-7.13 16.09a.92.92 0 0 1-.13.77c-1.86.85-2.07 2.45-1.88 4.22a.91.91 0 0 1-.1.77 2.12 2.12 0 0 0-.9 2.21 1.17 1.17 0 0 1-.11.8 2.1 2.1 0 0 0-.89 2.2 1.29 1.29 0 0 1-.1.8 2.09 2.09 0 0 0-1 2c0 .35-.06.7-.08 1-2.7 1.48-1.75 4-1.81 6.26a.71.71 0 0 1-.17.73c-2.66 1.36-1.75 3.86-1.92 6l-.1 1c-2.88 3.23-3.48 7-2.69 11.12l-.22 1.93c-2.54.29-2.69 2.68-2.76 4.16-.37 7.94-3 15.66-2.29 23.69l.15 8.1c-1.65 1.56-1.46 3.25-.32 5a37.32 37.32 0 0 1-.61 10.06c-2 4.35-1.79 8.71 0 13.08-.53 9.71.83 19.32 2.14 28.85 1.14 8.27 3.78 16.34 5.72 24.5a11.55 11.55 0 0 1 .06 2.43c-1.25 7 2.77 12.95 4.91 18.87 4.45 12.33 11.45 23.67 19 34.51 8.91 12.89 18.58 25.06 31.33 34.64 17 12.77 35.11 23.2 55.77 28.51a132.57 132.57 0 0 0 50 2.72c28-3.54 51-16.77 71.74-34.83A125.73 125.73 0 0 0 474 368.62c5.81-8 12.23-15.61 16.9-24.46 3.46-6.57 5.8-13.66 9.76-20 2.34-3.76 4.7-5 8.93-3 3.39 1.63 6.7 3.54 10.6 4.1 2.51.37 3.84 2.11 3.8 5-.07 4.84-2 9.23-3.2 13.73-1.88 6.78-5 13.24-6.72 20-2.86 11-7.88 21.24-11.18 32.13-3.19 10.51-6.1 21.23-10.26 31.4-2.07 4.98-1.88 11.08-6.75 14.73zM1356.87 11.16l74-.27c38.66-.15 77.33-.18 116-.61 5.29-.06 6.52 1.49 6.16 6.35a96.07 96.07 0 0 0 .15 15c.33 4-.66 5.54-5 5.34a70.08 70.08 0 0 0-21.33 1.93c-14.12 3.73-21.93 12.45-23.51 27a189.83 189.83 0 0 0-.92 20q-.53 148.72-.92 297.45c0 2.33 0 4.66.12 7 .8 18.82 10.6 29.32 29.43 31.61a119.78 119.78 0 0 0 18.43 1.27c2.59-.09 3.56.62 3.53 3.29-.06 5.83 0 11.67.28 17.49.15 3.05-.78 4-3.92 3.93-35.16-.33-70.32-.62-105.48-.67-28.83 0-57.65.22-86.48.53-3.17 0-4-.76-3.88-3.79.19-4.83.11-9.67-.17-14.49-.19-3.27.58-4.48 4.24-4.69 8.29-.46 16.62-1.11 24.64-3.66 15.78-5 23.54-14.64 23.68-31.2.32-36.49.2-73 .27-109.48l.38-198.46c0-5.16-.11-10.33-.44-15.48-1-16.38-9-25.08-25.33-27.82-7.58-1.28-15.27-1.07-22.91-1.6z"/><path d="M1527.82 494l1.25-.34c4 .7 7-1.08 9.75-3.59l1.26-.4c2.25.5 5-.43 5.77 3.29a147.4 147.4 0 0 0 10.25 30.35c3.89 8.54 7.41 17.28 12.52 25.24 2 3.06 1.64 5.32-2.58 5.75-7.66.77-14.44 4.54-21.79 6.49-23.66 6.28-47.85 8.78-72.1 9.87a538 538 0 0 1-67.3-1c-6.63-.53-13.26-.37-19.86-1q-19.24-1.82-38.47-3.84c-10.35-1.11-20.68-2.38-31-3.61-2.6-.3-5.22-1.11-7.67.55l-2-.16a1.85 1.85 0 0 0-2.08-1.71c-4.51.4-8.92-.54-13.34-1.09-11.46-1.43-23-2.16-34.46-3.54-5.58-.68-11.33-2.93-17.1-.65l-3-.25c-2.74-2.93-5.9-1.44-9-.86l-2-.15c-.43-.46-.83-1.28-1.29-1.32-12.13-1.16-24.19-3.16-36.41-3.19-1.16 0-2.35-.13-3.29.78l-4-.17c-3.1-3-6.54-1.66-9.95-.79-3.37.15-6.74.36-10.06-.5-3.89-2.37-7.93-1.53-12-.53h-20.09c-6-1.85-12.13-.39-18.2-.77-.94-.06-1.46.63-1.75 1.48a14.61 14.61 0 0 1-6 .33c-5.54-1.89-10.75-.18-16 1.45a14.3 14.3 0 0 1-6 .57c-7.65-.63-15.14 1.26-22.76 1.47-2.21.06-5.49.68-7.21 3.25l-2 .26c-2.25-2.14-4.46-.06-6.58.22-19.42 2.62-38 8.69-56.49 14.77-13.74 4.52-26.63 11-39.88 16.71-2 .87-4.37 1.76-5 4.36a2 2 0 0 1-2 .94c-.72-.71-.87-.12-1 .45h-.16c-4.78-.94-8 1-9.82 5.39a.5.5 0 0 1-.72.37c-6.75.88-12.37 4.28-17.32 8.57-5.81 5-13.28 8-17.84 14.55l.1-.1-1.14 1-.01.1c-1.57-.1-3.14-.2-3 2.13l.08-.09-1.08 1.09.07-.06c-3-.29-4.92.79-5 4.08l.08-.08-1.15 1.07.1-.09-1.1 1.06.06-.06c-3.47-.83-4.88 2.27-6.95 3.86-5.63 4.31-12 8.13-13.1 16.17v-.05c-1.64-.07-4-.65-4.49 1.15-2 6.87-8.41 9.05-13.38 13.61.66-13 5.69-23.94 11.12-34.67 2.82-5.59 6.25-10.86 9.14-16.41 4.73-9.07 11.08-16.94 17.29-25 3.76-4.88 9.59-8.32 11.12-14.87 2.54.49 4.18-1.09 5.38-2.83 3-4.31 9.2-5.5 10.63-11.23.94 0 1.83-.16 1.56-1.49h.08c3.06.86 4-1 4.45-3.46l1.09-.91c1.82.23 3.07-.89 4.49-1.75 13.47-8.14 26.51-17 40.61-24.15 4.64-2.37 10.8-2.44 13.83-7.76l1.61-.48c3 .28 5.69 0 7.4-2.93l.34-.1c1 .08 2 .09 2.57-1.07l-.12.07a1.92 1.92 0 0 0 2.19-.82l.17-.25.3.08c7.59-.71 14.34-4.42 21.67-6.14 2.38-.56 5.43-.25 6.93-3.06l.17.07c4.79.17 9.18-1.78 13.79-2.57 2.48-.42 5.24-.11 7-2.57l2-.48a2.49 2.49 0 0 0 2.73.77c8.55-1.93 17.3-2.68 25.92-4.13 19.67-3.29 39.54-3.75 59.35-4.6s39.76 1.27 59.55 3.07c10 .92 20.08 1.78 30.07 3.14 12.27 1.66 24.57 3.13 36.87 4.63 13.44 1.64 26.88 3.3 40.34 4.77 5.66.62 11.34 2.7 17.09.37l2 .15a1.86 1.86 0 0 0 2.09 1.68c6-.56 11.81 1.19 17.75 1 1.74 0 3.68.66 5.15-.95l6 .29c3.81 3.22 7.9 1.86 12 .72l4 .08c.2 1.39 1.08 1.88 2.4 1.88h19.14c1.29 0 2.22-.42 2.46-1.82l5-.06c.67.93 1.33.91 2 0h2.17a164 164 0 0 0 22.72.24c16.89-.73 33.66-2.18 50.44-4.14a356.23 356.23 0 0 0 51.13-9.45c3.85-1.06 8.93-1.19 11.5-5.65zM539.91 546.83a105.9 105.9 0 0 1-16 0c-.23-1.81-1.59-2.14-2.94-1.8-7.22 1.8-14.57.42-21.82 1-2.84.22-5.87.2-8.24 2.29a26.58 26.58 0 0 1-9 .56c-3.8-1.83-7.87-1.15-11.7-.67-13.11 1.63-26.13 4.19-39.44 3.79-2.3-.07-4.78-.2-5.84 2.62l-3 .19c-3.42-2.23-6.78-.07-10.13.21-10.88.91-21.84 1.45-32.59 3.24-12.25 2-24.63 2.81-36.92 4.4-17 2.2-34.07 4.53-51.29 5.63q-30.49 1.95-61 3.56c-14.92.78-29.84-1.23-44.74-1.58-19.19-.46-37.7-4.66-56.45-7.53-8-1.23-16.28-2.78-23.53-7.11-1.33-.8-2.82-1.5-1.84-3.4 1.51-2.93 2.1-6.19 3.9-9.08a92.7 92.7 0 0 0 6.63-13.26c5.19-12.45 11.61-24.38 15.79-37.26.78-2.41 2.37-3 5.09-1.92 7.93 3.24 15.8 7.19 24.1 8.85 16.18 3.25 32.21 7.14 48.54 9.85 24.46 4 49.06 5 73.66 6.52 16 1 31.9-1.39 47.87-1a12.29 12.29 0 0 0 1.49-.09q22.5-1.94 45-3.9c7.58-.66 15.22-1.29 22.69-2.43 16.18-2.46 32.43-4.41 48.65-6.53 14.26-1.87 28.62-3 42.81-5.28 15.11-2.41 30.34-2.88 45.52-3.59 16.25-.76 32.47 1.12 48.6 3 9.81 1.14 19.52 3.34 29.21 5.4 8.23 1.76 16.33 4.28 24.51 6.13 19.5 4.41 38.03 11.83 56.5 19.26a243.51 243.51 0 0 1 36 17.69c11.57 7 23.2 14 33.35 23.19 5.18 4.69 10.41 9.26 15 14.55 1.1 1.28 2.57 2.71 4.68 2.48l-.08-.07 1.08 1.1-.09-.09c.36.37.72.73 1.07 1.1l-.08-.08 1.07 1.09v-.06c.59 5.72 5.5 8.69 8.34 13 1 1.52 2 3.65 4.53 3.18a.45.45 0 0 1 .14.64c-.55 5.25 3.31 8.69 5.3 12.89 1 2 3.17 4 1.62 6.19s-4.47 2.45-7.23 2.29a15.3 15.3 0 0 1-4.24-1.21c-4.18-1.46-7.89-4.77-12.91-2.9-1.71.64-2.93-1.05-4.31-2-3.33-2.19-5.57-6.35-10.4-5.93-3-5-7-8.56-13.13-8.94h.06c-3.41-6.65-10.13-7.71-16.32-9.68l.08.06c-.07-1.85-1.51-1.42-2.61-1.56-1.75-3.79-5-4.82-8.8-4.66l-2.2-.87c-6.69-6.68-15.91-8.82-24.17-11.93-14.46-5.45-29.14-10.54-44.15-14.6-16.3-4.41-32.59-8.47-49.47-10-5.41-.5-11.1-.81-16.14-2.36-6.5-2-12.63-1.53-19-.88a9.63 9.63 0 0 1-5.09-.61c-1.22-1.55-2.55-1.3-3.94-.24l-3-.13c-6.29-3.12-12.68-1.69-19.05-.72zM203.76 914.29a283.46 283.46 0 0 0 0 28.86c1.6.85 2.34-.45 3.06-1.12 12.74-12 23.56-25.34 30-41.8 2.16-5.5 2-5.55-3.85-5.83-3.83-.18-7.65-.61-11.48-.61-2.81 0-3.73-1-3.75-3.82s1.48-3.24 3.72-3.3c6-.14 12-.49 18-.53 2.53 0 3.87-.75 4.66-3.32 1.66-5.4 3.74-10.67 5.58-16a26.49 26.49 0 0 0 .65-3.85c-7.68 1.19-15.15 1-22.59 1.38-1 .06-2 .19-3 .18-1.67 0-3.83.06-4.1-1.93-.29-2.17 2-2.34 3.52-2.62 13.79-2.49 27.13-6.57 40.35-11.15 7.4-2.57 14.88-4.94 21.57-9.11 2.46-1.53 4.5-1.22 6.26.68 3.83 4.16 7.54 8.44 11.21 12.75 2.06 2.41.72 3.27-1.81 3.79-7.81 1.62-15.57 3.47-23.38 5.06-1.92.39-3.47.78-4.28 2.8q-3.75 9.26-7.66 18.44c-1.17 2.73-.28 3.58 2.52 3.4 5.16-.33 10.32-.55 15.48-.73a7.57 7.57 0 0 0 5.64-2.78c2.74-3.12 5.43-6.28 8.21-9.51 5.63 4.41 10.28 9.84 15.32 14.86 1 .94 2.14 1.81 1.63 3.35-.56 1.69-2.21 1.27-3.43 1.31-10.66.38-21.32.66-32 1-1.08 0-2.65-.56-3.19.66-.69 1.54 1 2.21 1.87 3.14 10.19 11.07 24 16.51 36.76 23.6 1.55.86 3.48 1.21 4.6 3.33A35.15 35.15 0 0 0 305 941c-1.36 2.82-2.85 2.19-4.58.6-2.18-2-4.32-4-7.07-6.62-.79 4.48.38 8.15.35 11.82-.15 16.49-.42 33-.48 49.48 0 2.84-1 3.7-3.69 3.76-4.83.09-9.66.42-14.46.92-2.79.3-3.28-.78-3.27-3.3.09-24 .15-48 0-72 0-4.1 1.69-4.75 5.09-4.52 1.6.12 3.2 1.21 4.9.2.39-2.27-1.32-3.66-2.37-5.25-4.24-6.36-9-12.39-12.13-19.44-.52-1.16-1.15-2.69-2.61-2.79-1.68-.12-1.81 1.73-2.42 2.79-4.58 8.08-9 16.3-16.71 23.33 3.94.21 7.11.31 10.28.56 1.82.14 3.61.59 1.81 3-1.26 1.65-.69 3.52-.84 5.3-1 12.43.07 25-2.76 37.31-3 13-11.47 21.49-22.63 27.7a67 67 0 0 1-22.73 7.43c9.09-9.43 18.51-18.43 22-31.42 3.34-12.61 4.32-25.51 4.1-39-4 1.08-6.38 4-9.5 5.71-6.49 3.52-11.9 9.12-19.94 9.61-2.48.16-1.76 2.88-1.79 4.55-.19 14.49-.22 29-.46 43.48-.12 7.34.59 6.53-6.95 6.66-4.43.08-10.3 2.17-12.88-.61-2.19-2.35-.71-8.19-.71-12.49v-48c0-1.09.6-2.64-.6-3.17-1.73-.78-2.12 1.17-2.76 2.13-5 7.51-11 14.21-16.64 21.23-.87 1.09-1.48 3.13-3.36 1.8-1.47-1-1.53-2.69-.81-4.49 3.25-8.2 6.37-16.45 9.56-24.67 5.49-14.18 8.76-29 12.75-43.61.84-3.09.2-4.75-3.39-4.63-3.33.11-6.66-.06-10-.17-1.8-.06-3.58.08-4.44-2.28-1.83-5.08-1.4-5.85 4.1-6.08 4-.17 8-.5 12-.42 3 .06 4-1 3.94-4.08-.28-10.16-.2-20.33-.51-30.49-.09-3 .42-4.15 3.76-3.75 6.28.77 12.61 1.07 18.92 1.6 1.08.09 2.51-.25 2.85 1.33a2.23 2.23 0 0 1-1.31 2.46c-1.94 1-2.29 2.85-2.3 4.68-.07 9.24 0 18.47 0 28.22 3.76-1.89 5.78-4.73 7.72-7.52 2-3 4.06-2.68 5.9-.12 2.86 4 8.12 7.91 6 12.91-1.78 4.15-7.93 2.86-12.21 3.7-1.14.22-2.36 0-3.49.24-1.58.35-4-.84-4.38 2a4.11 4.11 0 0 0 2.68 4.79c7.94 3.39 12.55 10.09 17.21 16.87 2.66 3.88 2.25 7.29-.71 10.31S217 926.67 212.3 926c-4.14-.63-3.58-6.17-5.18-9.5-.42-.87-.77-1.78-1.16-2.67a11.51 11.51 0 0 0-2.2-10.87zM1554.32 954.74c7.71 6.85 16.54 9.15 24.23 14.52-23.07 15.93-47.69 26.73-75.36 30.72 16.54-14.53 34.4-27.52 50.44-44.91h-9.85c-12.83 0-25.66-.25-38.47.1-5.32.15-4.36-3.4-4.61-6.2-.35-3.91 2.91-2.21 4.61-2.36 5-.42 11.31 1.64 14.52-1.33s.75-9.44.77-14.34c.08-22.65.05-45.31-.22-68-.05-4 1.21-3.84 4.13-2.85 7.53 2.56 14.8 6.06 23 6.35 6.4.22 6.47.32 6.48-5.94 0-6.5.08-13-.26-19.49-.16-3.12.88-3.63 3.66-3.27 6.44.82 12.91 1.39 19.37 2.08 1.13.12 2.64 0 3 1.32s-1 2.14-2.07 2.42c-3 .79-3 3-3 5.44 0 4.5.05 9-.29 13.49-.2 2.68.64 3.35 3.23 3.45 8.35.31 8.35.42 8.1-7.84-.17-5.66-.24-11.33-.59-17-.13-2.08.19-3.26 2.51-3.08l20.91 1.71c.82.07 1.72.2 2 1.18a1.52 1.52 0 0 1-1.12 1.93c-2.63.75-2.39 2.87-2.4 4.83 0 5.33.07 10.66 0 16 0 2.5.92 3.32 3.58 3.42 5.41.2 8.85-2.63 11.43-6.72 2-3.22 4.07-3.32 6.89-1.27 5 3.61 10 7.12 15.06 10.71 2.16 1.54 3.92 3.15-.06 4.68-3.17 1.22-3.13 4-3.13 6.7q0 23.73.06 47.47v16.6c3.63-3 5.54-6.68 7.77-10 1.84-2.71 3-3.25 5.39-.43 3.89 4.55 8.26 8.69 12.47 13 1.34 1.37 2.59 2.9 2 4.81-.76 2.52-3.11 1.33-4.73 1.35-34.64.46-69.28 1.08-103.93.71zm64.14-25.49h.28c0-4.15-.2-8.32.06-12.46.2-3-.88-3.87-3.67-3.46a15.15 15.15 0 0 1-4 0c-3.29-.39-4.29 1-4.2 4.23.19 7 0 14 0 20.93 0 7.39 0 7.19 7.2 7.35 3.3.07 4.46-1 4.38-4.17-.12-4.11-.05-8.27-.05-12.42zm-11.8-38.92h.18c0 4 .12 8 0 11.94-.13 3.25.59 5.18 4.42 4.25a13.46 13.46 0 0 1 4-.22c2.5.15 3.57-.79 3.53-3.4-.11-8.62 0-17.25-.09-25.88 0-1.07.26-2.65-1.47-2.6-3.3.08-6.9-.33-9.78.89-1.8.76-.62 4.28-.7 6.56-.17 2.82-.09 5.64-.09 8.46zm-52.87.15h.36v-11.46c0-2.12 1.09-5.3-3-4.46-3 .62-8-2.37-8 4.15 0 7.81 0 15.62-.25 23.42-.13 3.69 1 5 4.8 4.73 3.41-.27 6.74.38 6.17-4.93a112.06 112.06 0 0 1-.08-11.45zm32 39.54h-.17v-9.48c-.06-7.21-.07-7.11-7.52-6.78-2.3.1-3.32.75-3.29 3.14.12 8.81.08 17.62.23 26.43.08 4.88 3.92 2.8 6.33 3.07s4.69.25 4.48-3.41c-.28-4.31-.1-8.65-.1-12.99zm0-39.07h-.28c0-4.3-.14-8.62 0-12.92.21-5.43-4-3-6.33-3.62-2.88-.74-4.19.54-4.18 3.63 0 7.13-.26 14.25-.31 21.38-.06 8 0 7.87 7.88 7.56 2.75-.1 3.31-1.18 3.23-3.6-.1-4.14 0-8.28 0-12.38zm-32 39.19h-.17c0-4.15-.16-8.3.05-12.43.16-3.1-1.05-4.4-4-3.72-2.55.58-6.86-2-6.77 3.67.13 8.45.17 16.9.17 25.36 0 2.09.38 4.1 2.88 3.21s7.35 2.49 7.79-3.17c.32-4.28.05-8.61.05-12.92zM1139.84 866c5.59-2.74 9.46-.23 13.05 3.95 1.8 2.08 4.27 3.57 6.28 5.49 1.21 1.14 2.32 2.65 1.79 4.42-.66 2.19-2.78 1.49-4.29 1.52-14.33.22-28.66.46-43 .41-3.61 0-4.34 1-4.07 4.53 1 13.44 2.9 26.7 7.26 40.41 6-10.5 10.55-20.66 13.41-31.5 1-3.65 1.7-4.24 5-1.88 6.41 4.63 13.19 8.73 20.88 13.74-6.46.88-7.84 5.17-9.65 9.27a170.79 170.79 0 0 1-17.57 31.3c-1.79 2.47-1.75 4.46-.27 6.79 3.83 6.05 9.3 10.38 15.09 14.35 2.48 1.69 3.48 0 4.44-2 2.88-6 5.78-12 8.82-17.92.66-1.28 1-3.86 3.3-2.75 1.67.83.42 2.67 0 4a86.88 86.88 0 0 0-2.77 12.15c-1 6.08-.21 11.58 3.77 16.46a13.46 13.46 0 0 1 2 3.47c2 5 3 10.14-.82 14.63-4 4.68-9.23 4.83-14.67 3a33 33 0 0 1-6-2.52c-11.65-6.64-20.43-16.32-28.62-27.13a189.12 189.12 0 0 1-48.11 29.3c-.5-3.53 1.49-5.54 3.37-7.54q13.52-14.4 27.07-28.74c.58-.6 1.09-1.27 1.71-1.83 5.62-5 6.8-9.89 3.56-17.7-7.58-18.25-10.14-37.87-11.62-57.52-.27-3.66-1.2-4.71-4.92-4.61-13 .34-26 .41-39 .32-3.44 0-4.82 1-4.73 4.47.15 5.83.12 11.66 0 17.49 0 2.62.68 4 3.66 3.86a61.4 61.4 0 0 1 9.49.28c4.81.51 8.72-.31 11.43-4.94 1.65-2.83 4.34-3.24 7.28-1.23 4.54 3.09 9.21 6 13.77 9 2.5 1.67 2.57 4.2-.25 4.74-4 .78-4 3.35-4.17 6.18-.85 13.45-1 26.95-3.54 40.28-1.63 8.58-13 18.73-21.61 18.66-1.2 0-2.49.12-2.66-1.49-1-9.27-6.38-15.4-13.92-20.14-.75-.47-1.1-1.59-2.35-2.41-4.45 20.55-16.23 35.21-33.8 45.72 1.9-4.47 3.94-8.88 5.68-13.41 7.14-18.61 9.54-38.1 9.84-57.84.33-20.66.15-41.32 0-62 0-2.84-.09-4.18 3.24-2.47 11 5.64 22.72 6.93 34.94 6.11 9-.59 18-.56 27-.4 3.14.06 3.5-1 3.36-3.64-.51-9.48-.71-19-1.27-28.46-.17-2.79.23-3.84 3.35-3.5 7.41.82 14.85 1.27 23 1.93-9 10.36-3.76 21.63-4.1 32.29 0 1.33.54 2.28 2 2.22 7.48-.3 15 .3 22.4-1.43 1.42-.33 3.38-.66 3.58-2.83h-.09c.93.2 1.55.11 1.08-1.08l-.08.08c1.16.44 1.33-.12 1.09-1.08l-.09.08c1.1.38 1.27-.17 1.09-1.08zm-78.93 64c-.3-4.73 1.89-10.29-.65-13-2.79-2.94-8.48-.63-12.89-1a18.77 18.77 0 0 1-2 0c-3.54-.71-4.53.85-4.56 4.25-.11 11.14-.68 22.26-2.8 33.22-.6 3.14.57 3.68 3.24 3.58 3.65-.13 7.31-.19 11 0 5.07.26 7.22-2.29 7.48-7.06.34-6.91.79-13.71 1.18-20.07zM757.06 839.85c-9.46 6.21-6.11 14.71-6.48 22.09-.63 12.53-.29 12.55 12.08 12.67 6.16.06 12.38-.42 18.47.26s9.08-3 11.6-7c2.94-4.64 5.3-4 8.85-.89 4.87 4.29 10.1 8.16 15.19 12.2 2.32 1.84 3.15 3.51-.39 4.89-4 1.57-4.38 5-4.38 8.62 0 15.82-.24 31.64 0 47.46.07 4.8-.73 7.29-6.28 7.07s-11 .48-16.45.91c-2.38.19-3.14-.52-3.16-3 0-3.58 1.95-8.39-.84-10.41-2.45-1.78-7-.76-10.63-.81-6.83-.1-13.67.1-20.48-.19-3.57-.15-4.53 1.09-4.49 4.52.21 18.82.08 37.64.43 56.45.07 4-1 5.71-5 5.89-5 .21-10 .55-14.93 1.1-4 .45-5.43-.7-5.38-5.05.25-19.31 0-38.63.2-57.95 0-3.71-.84-5-4.67-4.8q-13.47.61-27 .5c-4 0-5.14 1.44-5.21 5.22-.12 7-.32 7-7.32 7.41a98.27 98.27 0 0 0-10.45.77c-4.31.75-4.91-1.28-4.89-4.88q.27-37 .22-73.94c0-3.24 1.07-3.36 3.44-2.24a9.52 9.52 0 0 1 .94.34c16.45 9.36 34.49 6.88 52.19 7.14 3.33 0 3.23-1.81 3.21-4.14-.11-10-.14-20-.2-30 0-1.42-.64-3.4 1.79-3.18 9.58.89 19.1 1.89 30.02 2.97zm-6.69 63.72h-.22c0 5.66.19 11.32-.07 17-.15 3.27.81 4.37 4.14 4.27 9.47-.26 18.95-.32 28.43-.24 2.93 0 4.1-.66 4.05-3.86-.18-11.14-.14-22.28 0-33.41 0-3.22-1-4.4-4.27-4.34q-14.21.27-28.42 0c-2.83 0-3.81.76-3.72 3.64.22 5.64.08 11.29.08 16.94zm-61.27-.17h-.16c0 6 .11 12-.05 18-.07 2.78.76 3.74 3.68 3.69 9.47-.15 19-.15 28.44.1 3.4.1 4.23-1.14 4.18-4.28-.18-11.31-.25-22.63-.12-33.94 0-3.26-1-4.32-4.27-4.25-9.32.21-18.64.27-27.95.09-3.32-.06-3.87 1.35-3.79 4.16.14 5.45.04 10.95.04 16.43zM491.78 931.24c-.49-3.11.72-5.13 1.82-7.08a245.44 245.44 0 0 0 27.38-73c.52-2.65 1.83-2.13 3.57-1.71 7.74 1.92 15.49 3.83 23.27 5.61 2.5.57 1.88 1.6.91 3.07-3.87 5.9-5.36 12.86-8.49 19.09-1 1.9-.35 2.82 1.75 2.78a2.73 2.73 0 0 1 .5 0c14.18 1.92 14.2 1.91 14.33-12.24.07-8.83.11-17.66.18-26.49 0-1.39-.69-3.33 1.85-3.13 9.53.76 19.06 1.59 29.16 3.07-8.18 3.5-6.08 10.22-6.17 16.12-.1 6.33.11 12.66 0 19-.07 2.87 1 3.75 3.76 3.63a86.6 86.6 0 0 1 13 .14c7.34.83 12.25-2.06 16.1-8.22 3.73-5.95 4.05-5.74 9.08-1 4.74 4.44 9.52 8.84 14.24 13.29.92.87 2.65 1.55 2.08 3.08s-2.32.84-3.56.84h-48c-7.78 0-6.59-1.12-6.72 7-.18 10.63.75 21.3-.56 31.89-.29 2.41 1.09 2.16 2.2 2.16 7.5 0 15 .29 22.47-.43 4.12-.4 5.33-5.12 7.28-8.21 1.51-2.39 2.27-2.67 4.25-.78 4.81 4.6 9.77 9 14.59 13.65 1.14 1.09 2.84 2.38 2 4.19-.76 1.62-2.69.9-4.11.9-14.95.07-29.91.14-44.86.09-2.55 0-3.94.31-3.86 3.46.33 12.82.47 25.64.5 38.46 0 3.12.75 4.34 4.18 4.22 8.32-.3 16.68-.5 25 0 6.11.35 10.2-1.45 13.67-6.68 4.74-7.15 5.17-7 11.7-1.12 4.1 3.66 8 7.48 12 11.32 1.25 1.23 3.37 2.46 2.64 4.44-.79 2.15-3.21 1.27-4.91 1.29q-35.48.29-71 .41c-27 .06-54 0-81 0-4.87 0-7.08-3.53-5.16-8 .95-2.23 2.86-1.22 4.34-1.23 19.49-.08 39-.21 58.47 0 4.15 0 5.3-1.07 5.21-5.24-.29-12.32-.2-24.66 0-37 0-3.31-1-4.21-4.23-4.15-11.82.2-23.65-.07-35.47.15-5.49.1-3.74-3.81-4.17-6.53-.58-3.71 2.06-3.46 4.45-3.44 11.66.08 23.33 0 35 .33 3.6.08 4.45-1.12 4.38-4.55-.2-10.65-.23-21.32.05-32 .09-3.67-1.13-4.54-4.5-4.36a79.8 79.8 0 0 1-13.48-.13c-4-.49-5.89 1-7.82 4.29-9.5 16.24-23.62 27.91-39.29 38.75zM888.59 837.52c16.31-.25 30.22 3 40.71 14.83 6.15 6.93 5.39 10.36-2.06 15.77-1.71 1.25-3.45 2.47-5.65 4 13.12 0 25.61.11 38.09-.09 3-.05 3.78-3.45 5.61-5.27 2.8-2.8 5.07-7.81 8.1-8.26 3.22-.47 6 4.58 9 7.12q5.76 4.8 11.33 9.82c1.18 1.07 3 2.11 2.4 4-.66 2.18-2.89 2.05-4.64 2.18-5.48.42-11 1.12-16.45.84-4.83-.26-6.67 2-8.16 6C962 901.84 956.42 914.84 949 927a134.25 134.25 0 0 1-14.18 19.9c-2.24 2.5-2.44 3.8.77 5.49 10.9 5.73 21.72 11.58 33.4 15.68 8.43 3 16.74 6.28 25.56 9.62-7.71 6.57-13.61 14.06-17.35 23.07-1.21 2.93-2.85 1.33-4.38.74-19.32-7.5-37.06-18.05-53.82-30.17-3.41-2.46-5.65-2.64-9-.07-20.25 15.6-43.9 23.41-68.35 29.25a13.52 13.52 0 0 1-7.17.18c.87-2.6 3.27-3.1 5.13-4.12 20.2-11 40-22.7 57.21-38.18 5.15-4.62 5.29-4.52 1.15-9.84-12.18-15.69-18.68-34-24.17-52.73-1.39-4.76-1.31-10.93-5-13.73-3.54-2.66-9.32-.42-14.11-.64-4.32-.19-8.66-.2-13-.11-5.43.11-3.68-4.3-4.1-6.88-.67-4 2.77-1.79 4.1-1.8 23.27-.15 46.55-.11 70.53-.11-7.22-12.02-14.52-23.55-23.63-35.03zm-14.25 44.4c-.5 1 .13 1.65.44 2.39 7.82 19.1 20 35 35.16 48.87 4.75 4.35 4.69 4.36 8.35-1.09 9.66-14.42 15-30.66 20.22-47 1.06-3.34-.83-3.17-3-3.17zM344.32 864.87a7.14 7.14 0 0 1 4.56 5.69c.92 4 3.26 5.44 7.1 5.31 3.14-.1 6.29 0 9.7 0-6.84-9.94-10.23-21.55-16.84-31.47-.55-.83-1.31-1.81-.75-2.75.78-1.3 2.08-.49 3.14-.29a41.05 41.05 0 0 1 23.34 12.56c7.83 8.49 6.57 15.82-3.59 21.05.19 1.52 1.41 1.16 2.3 1.16 13.83-.08 27.66-.32 41.48-.24 4 0 6.1-1.71 7.64-5 4.19-9.08 8.63-18.07 11.43-27.68 1.24-4.26 3-4.67 6.73-3.09 6.24 2.68 12.63 5 19.3 7.61l-26.76 28.15c9.29.29 18.07 2 23.66-7.24 1.77-2.92 3.91-2.83 6.55-.65 6.16 5.11 11.83 10.72 18.05 16.92A109.34 109.34 0 0 0 456 901.78a174.38 174.38 0 0 1-38.39 25.08c-4.79 2.33-5 5.38-5.09 9.41-.05 2.15.72 2.84 2.93 2.79q15.74-.39 31.48-.45c4.19 0 5.47-3.44 7.44-5.91 5.53-7 5.47-7.05 11.78-.6 3.72 3.81 7.38 7.69 11 11.58.86.92 2.49 1.76 1.8 3.21s-2.4.74-3.66.75c-19.16.05-38.32.18-57.48 0-3.86 0-4.79 1.16-4.75 4.75.08 8.5-.51 17-.3 25.49.23 8.93-4.32 14.39-11.8 18-5.32 2.54-11.11 3.4-16.9 4.2-2.05.28-2.69-.41-3.19-2.55C378.43 987 372.3 980 361.31 978c-1.51-.28-4-.23-3.81-2.35.27-2.71 2.92-1.51 4.48-1.47 6.65.2 13.33.39 19.94 1.08 4.94.52 6.59-1.38 6.49-6.09a127 127 0 0 1 .51-16c.52-4.71-1.51-5.59-5.6-5.54-17.5.22-35 .23-52.49.28-2.17 0-4.46.75-4.88-3.09-.47-4.22.49-5.27 4.78-5.24 18.5.14 37-.18 55.48-.18 2.6 0 3.65-.71 3.55-3.33-.11-3 .25-6-.08-9-.35-3.27.41-5.06 3.94-3.89 11.46 3.8 17.14-3.69 22.69-11.47.64-.89 1.76-1.88 1.18-3.08s-2.1-.69-3.15-.68c-14.83.19-29.66.47-44.48.7-3.33.05-6.69-.22-10 .12-5.28.54-3.61-3.31-4.12-5.91-.71-3.62 1.72-3.16 3.88-3.16 18.33 0 36.66-.08 55 0 4.45 0 8.67-.56 12.12-3.65 2.18-2 4.27-1.51 6.31.07 3.12 2.43 6.17 4.94 9.71 7.79 1.74-6.39 3.31-12.27 4.95-18.12.7-2.46 0-3.16-2.6-3-29.29 2-58.62 1.58-87.94 1.35-3 0-4.24.89-4.25 3.89a27.3 27.3 0 0 1-7.65 19c-3.49 3.8-10.59 4.39-15 1.2a9.7 9.7 0 0 1-2.43-13.66c3.62-5.59 7.6-11 11.35-16.45 2.63-3.92 5.15-7.85 5.13-13.25zM1435.63 977.32h19.41c9-.09 9.12-.12 9.11-9 0-25.65-.13-51.29-.18-76.94 0-9-.08-18 .18-27 .1-3.42-.71-4.51-4.34-4.47-21.32.23-42.64.18-64 .23-4.12 0-6.63-2.72-6-6.56.4-2.37 2.36-1.42 3.6-1.37 20.64.84 41.3-.06 61.94.43 6.43.15 11-1.81 14.31-7 1.82-2.88 3.44-3.21 6.34-1.33a114.52 114.52 0 0 1 16.33 13.11c2.21 2.09 2.33 3.77-.8 4.52s-3.33 3-3.4 5.3c-.19 6.16-.23 12.32-.3 18.48-.31 30.14.51 60.28-.57 90.42-.68 19-12.31 24.4-28.84 26.59-2 .26-2.73-.87-3-2.52-1.84-11.74-9.18-18.67-19.79-22.89zM1304.71 915c2.1-2.89 4.21-5.77 6.28-8.69 1.34-1.89 2.43-2.15 4.25-.26 3.59 3.71 7.51 7.08 11.24 10.66 1.28 1.24 3.28 2.51 2.55 4.51-.78 2.17-3.15 1.35-4.87 1.36q-46 .23-92 .33c-4.5 0-9-.21-13.49-.25-2.73 0-4.9-.35-4.88-4s2.73-2.65 4.61-2.83c5.31-.5 10.63-.86 16-1.22 2.38-.17 3.67-1.09 4.56-3.61 2.39-6.79 3.43-13.89 5.49-20.74 1-3.23-.27-4-3.41-3.88-3.81.18-7.66-.37-11.48-.21-4 .18-4.32-2.7-4.31-5.26 0-3.09 2.72-1.27 4.22-1.67a5.69 5.69 0 0 1 1.49 0c17.33.08 17.27.08 19.17-17.12.29-2.68-.33-3.53-3-3.53-7 0-14-.43-21-.32-4.7.08-3.84-3.4-3.95-5.83-.15-3.32 2.7-1.58 4-1.55 19.83.41 39.65 0 59.48 0 8.29 0 14.15-2.75 18.19-9.64 1.74-3 3.07-3 5.63-.8 4.66 4 9.36 8 13.61 12.5 1 1 2.65 2 2.1 3.68-.59 1.8-2.54 1.21-4 1.35-14.3 1.39-28.64.6-43 .52-4.65 0-6.54 1.47-7.15 5.9a106 106 0 0 1-2.65 11.69c-.6 2.34 0 3.43 2.56 3.27a49.41 49.41 0 0 1 7 0c4.14.33 7.49-.68 9.71-4.5 1.79-3.07 4-3.21 7-1.19a157.48 157.48 0 0 1 13.86 9.8c2 1.73 3 3.33-.48 4.49-2.15.72-3.08 2.23-3.18 4.52-.33 7.31-.77 14.61-1.17 21.91zm-21.64-17.07h-.15a70.26 70.26 0 0 1 .73-7.43c.62-3-.2-4.29-3.43-4.15-3.65.16-7.32 0-11-.13-1.68-.05-3 .22-3.33 2.14-1.58 8.52-4.47 16.69-7 25-.65 2.16.28 2.56 2.17 2.53 5.82-.06 11.64-.11 17.46 0 2.33 0 2.76-1.21 2.94-3.05.54-4.99 1.1-9.95 1.61-14.91zM130.85 900.9c0-16.21.11-36.7-.08-57.2-.05-4.45 1.43-5.19 5.53-4.57 6.57 1 13.25 1.33 19.88 1.94 1.3.12 3.06-.08 3.32 1.48a2.89 2.89 0 0 1-2.49 3.26c-5.47.71-5.1 4.6-5.15 8.54-.43 39.32.17 78.66-1.21 118-.19 5.28-.23 10.58-2.93 15.54-5.34 9.8-15.06 11.25-24.46 13.43-1.85.43-2.25-.9-2.31-2.38-.4-9.57-6.86-14.26-14.5-18-1-.5-2.16-.87-3.24-1.33s-2-1.34-1.49-2.72 1.51-1 2.51-1c5.33.15 10.66.5 16 .4 8.27-.15 9.68-1.68 9.94-10.11.61-20.33 1.04-40.66.68-65.28zM1297 999.59c-4.21 1.27-5.3-1.09-4.91-4.69.57-5.29-1.73-6.79-6.86-6.54-9 .45-18 .35-27 .19-3 0-4 .73-4.11 3.82-.29 7.52-.46 7.52-8.11 8.15-13.4 1.11-13.39 1.11-13.63-12-.3-16.66-.52-33.31-1-50-.11-3.75 1-4.12 4.26-3.26 17.53 4.6 35.43 2.8 53.23 2.87 2.85 0 4.07-1.89 5.32-3.88 2.23-3.51 4.53-4.7 8.47-1.77a170.58 170.58 0 0 0 16 10.2c2.6 1.53 3.31 3.11.51 4.56-3.48 1.79-3.78 4.6-3.77 7.88.07 13.33-.08 26.66.17 40 .06 3-.76 3.66-3.5 3.7-4.98.05-9.97.48-15.07.77zm-24.17-53.46V946c-5.15 0-10.3.11-15.45 0-2.4-.07-3.2.77-3.23 3.11q-.17 13.71-.59 27.4c-.09 2.61.9 3.51 3.45 3.52q15.45.07 30.89.39c2.79.06 3.81-.92 3.79-3.74-.08-9-.1-17.94.19-26.9.11-3.38-1.29-3.79-4.11-3.67-4.95.17-9.94.02-14.92.02z"/><path d="M1392.36 903c11.69 4 23.15 4 34.63 4 3 0 5-.67 6.48-3.4 2.31-4.37 5.41-4.73 9.27-1.7 4.43 3.46 9 6.69 14.27 10.55-5.51 1.26-6.06 4.82-6 8.86.09 12.47 0 25 .18 37.42 0 3.22-.74 4.85-4.22 5.09a76.69 76.69 0 0 0-10.84 1.64c-3.65.78-5.68-.43-5.28-4.19.34-3.31-1.13-4-3.93-3.8-1.32.11-2.66 0-4 0-10.23.31-10.31.3-11 10.31-.19 2.78-1.07 4.24-4 4.49-4.79.4-10.74 3.1-14 1.16-3.67-2.16-1.35-8.77-1.4-13.4-.28-18.7-.16-37.46-.16-57.03zm39.13 29.72h.09c0-4.49-.11-9 .05-13.47.09-2.51-.69-3.63-3.3-3.68q-6.24-.11-12.46-.67c-2.45-.21-3.17.72-3.12 3.08.11 5.82-.17 11.65.07 17.46.19 4.58-2.17 10.79 1 13.28 2.93 2.33 8.89.85 13.51 1a8.35 8.35 0 0 1 1 0c2.44.38 3.25-.8 3.21-3.1-.1-4.56-.05-9.22-.05-13.88zM1373.79 957.8c5.63-4.66 10.46-8.11 16.26-10.72-3.89 15.5-13.87 27-23.55 38.68-2.33 2.82-5 5.42-7.07 8.4-1.62 2.31-2.32 1.51-3.42-.24-3.89-6.18-7-12.9-12.16-18.24-1.52-1.57-1.75-3.2.57-4.4 7.46-3.85 8.46-10.21 8.17-18-.65-17.81-.54-35.64-.56-53.47 0-3.16-.7-4.57-4.11-4.23s-6.69-.09-10 .33c-3.62.47-4.2-1.7-4.63-4.33-.6-3.7 2.27-2.46 3.93-2.64 3-.33 6-.49 9-.55 4.91-.12 9.16-1.35 12-5.82 1.77-2.83 3.94-2.91 6.59-.85 4.46 3.48 9.06 6.79 13.66 10.08 2.4 1.73 2.74 3.48-.06 4.82-4.41 2.12-4.67 5.75-4.64 10 .11 16.63.02 33.24.02 51.18zM783 584.81c-2.11.23-3.58-1.2-4.68-2.48-4.59-5.29-9.82-9.86-15-14.55-10.15-9.18-21.78-16.15-33.35-23.19a243.51 243.51 0 0 0-36-17.69c-18.49-7.43-37-14.85-56.61-19.27-8.18-1.85-16.28-4.37-24.51-6.13-9.69-2.06-19.4-4.26-29.21-5.4-16.13-1.88-32.35-3.76-48.6-3-15.18.71-30.41 1.18-45.52 3.59C475.38 499 461 500.1 446.76 502c-16.22 2.12-32.47 4.07-48.65 6.53-7.47 1.14-15.11 1.77-22.69 2.43q-22.5 2-45 3.9a12.29 12.29 0 0 1-1.49.09c-16-.42-31.9 2-47.87 1-24.6-1.54-49.2-2.47-73.66-6.52-16.33-2.71-32.36-6.6-48.54-9.85-8.3-1.66-16.17-5.61-24.1-8.85-2.72-1.11-4.31-.49-5.09 1.92-4.18 12.88-10.6 24.81-15.79 37.26a92.7 92.7 0 0 1-6.63 13.26c-1.8 2.89-2.39 6.15-3.9 9.08-1 1.9.51 2.6 1.84 3.4 7.25 4.33 15.5 5.88 23.53 7.11 18.75 2.87 37.26 7.07 56.45 7.53 14.9.35 29.82 2.36 44.74 1.58q30.51-1.59 61-3.56c17.22-1.1 34.26-3.43 51.29-5.63 12.29-1.59 24.67-2.35 36.92-4.4 10.75-1.79 21.71-2.33 32.59-3.24 3.35-.28 6.71-2.44 10.13-.21-19.33 2.36-38.65 4.88-58 7-25.49 2.82-50.89 6.42-76.45 8.61C226 575.66 165 575.82 105 558.72c-6.68-1.9-6.62-1.76-3.5-8 9.79-19.5 19-39.29 26.25-59.89 1.08-3 2.18-3.43 5-2.4 64.55 23.92 131.51 28 199.42 24.19 48-2.67 95.39-10.05 143-16.32 24.47-3.24 49-5.82 73.74-4.71a400.72 400.72 0 0 1 51.53 5.91c45.2 8 88.12 22.3 128.41 44.1 20.43 11.12 39.41 24.64 54.15 43.21zM66.63 964.2c8.48-1.44 15.77-2.8 23.11-3.85 2.07-.29 5.28-2 6.17.47s-2.66 2.88-4.42 3.84A247.83 247.83 0 0 1 52.29 982a236.15 236.15 0 0 0-36.56 15.9c-2.67 1.45-3.55 1-4.57-1.72-2.35-6.18-4.93-12.34-7.61-18.42-1.11-2.5-.85-3.4 2.09-3.84 16.44-2.45 32.61-6.61 49.21-8.11 4.17-.37 6.19-2.17 7.44-6.17a259.27 259.27 0 0 0 10.1-47.73c.51-4.38 1.92-4.42 5.19-2.94 5.6 2.53 11.28 4.88 16.92 7.33 1.24.54 2.76 1.17 1.34 2.84-7.3 8.62-10.2 19.79-16.87 28.76-3.82 5.1-7.73 10.22-12.34 16.3zM29.88 895.86c-8.16 3.52-15.41 8.67-23.25 12.77C4.59 909.7 2 912.89.4 911s1.78-4.1 3.29-5.93c16-19.37 29.6-40.15 38.46-63.8.76-2 1.72-2.6 3.67-2 6.88 2 13.77 3.89 20.65 5.88 2.66.76 2.38 2.09.83 3.95-4.21 5.05-4.18 5.13 1.74 8.09 10.5 5.23 20.32 11.33 28 20.44 1.86 2.21 2.09 3.74.19 5.94-2.49 2.9-4.72 6-7 9.08-2.11 2.82-4 2.63-6.47.17-8.35-8.24-14.86-17.94-21.79-27.28-2.68-3.62-4-3.81-6.28.11-5.92 10.2-14.56 18.1-22.79 26.35-1.17 1.18-3.3 1.72-3.11 4zM101.73 907.4c0-15.5.12-31-.09-46.49 0-4 1.21-4.79 4.89-4 4.56 1 9.23 1.33 13.82 2.11 2 .34 4.13.74 2 3.72-.75 1-.44 2.9-.45 4.4q-.52 41.48-1 83c-.08 7.75 0 7.75-7.53 8h-2c-9.27.42-9.28.42-9.28-8.76v-42zM1189.11 921.89a25.27 25.27 0 0 1 0-7.86c1.45-.29 2.91-.55 4.36-.86 9-1.95 15 2.94 14.42 11.68-.63 9.25.42 18.49.94 27.73.09 1.52-.06 3.09 2.07 3.28l14.94-6.76c1.16-.53 2.4-1.77 3.56-.41 1 1.13.27 2.53-.33 3.72a86.3 86.3 0 0 1-10.36 15.26c-6.94 8.51-14.26 16.71-21.37 25.07-1.1 1.29-1.94 1.79-3 0-3.67-6.41-8.93-11.6-13.42-17.37-1.72-2.22-1.68-3.7.87-5.14 6-3.38 7.9-8.47 7.51-15.38-.59-10.28-.19-20.61-.21-30.93.54-.18 1.21-.25 1.22-1s-.65-.86-1.2-1.03zM167.84 92.79c-2.06 6.14-7.19 10.15-10.73 15.27-9.72 14.06-19.71 28.2-25.35 44.21-5.29 15-11.52 29.7-14.49 45.71a301.19 301.19 0 0 0-5.15 49.77 177.32 177.32 0 0 0 4 40.42c3 13.92 7.67 27.38 12.85 40.74 3.72 9.61 8.6 18.49 13.43 27.39 4.71 8.7 11.5 16.16 18 23.61a224.83 224.83 0 0 0 43.34 37.6c11.39 7.72 23.54 14 35.79 20.06a152 152 0 0 0 25.9 9.62c7.91 2.23 15.65 4.91 23.76 6.63 10.64 2.25 21.29 3.89 32 5.47 14.81 2.16 29.53 1.64 44.27 1.51 14-.12 27.77-2.52 41.48-5.33 10.51-2.15 21.17-3.55 31.7-5.6 9.7-1.9 19.29-4.4 29-6.28 4.94-1 9.92-2.94 15.08-.91q-30.57 6.1-61.15 12.19a483.14 483.14 0 0 1-56.82 7.91c-31.31 2.41-61.72-2.63-91.72-11A244.64 244.64 0 0 1 188 408.91c-43.58-33.83-68.94-78.46-75.9-133-5.7-44.71.35-87.94 19.65-129.09 8.62-18.37 19-35.51 32.35-50.8 1.1-1.24 1.98-2.76 3.74-3.23zM1298.87 1062.05c0-9.15.1-18.3-.06-27.44 0-2.81.82-3.89 3.66-3.77 4.15.18 8.32 0 12.47.09 23.48.55 35.61 15.53 31.35 38.64-2.63 14.26-11.83 22.5-26.21 23.33-5.64.33-11.3.3-16.93.73-3.31.26-4.42-.91-4.38-4.15.13-9.14 0-18.29 0-27.43zm9.22-.26h.05v20.49c0 1.55-.64 3.74 1.92 3.8 7.16.16 14.45.74 20.39-4.56 8-7.09 10.37-23.59 5-32.85s-13.86-11.12-23.44-11.36c-3.09-.08-4.11 1-4 4 .19 6.82.08 13.69.08 20.48zM113.66 1054.37c5-2.52 8.9-5.09 13.91-4.62 3.63.34 7 1.08 9.23 4.16 1.87 2.61 3.18 1.87 4.91-.11a13.81 13.81 0 0 1 6-4.32c7.65-2.55 13.86.6 16.4 8.51 2 6.17 1.23 12.54 1.24 18.85 0 4.16-.25 8.33-.12 12.49.07 2.42-.35 3.4-3.15 3.65-4.12.38-6 0-5.47-5a224.18 224.18 0 0 0 .52-22.46c0-5.55-3-9.15-7-9.3-5.79-.2-10.6 3.81-10.8 9.39-.29 7.82-.48 15.65-.35 23.47.05 3.28-1 4.43-4.21 4.54-3.61.13-3-2.22-3-4.34 0-7.83.09-15.66 0-23.48-.06-4-1.12-7.89-5.23-9.44s-7.32.91-10.34 3.45c-1.93 1.61-1.92 3.75-1.91 5.93 0 8-.11 16 .21 24 .13 3.21-1.19 3.78-3.77 3.38-2.13-.32-5.07 1.12-4.9-3.38.43-11.64.34-23.31.61-35 0-1.78-1.5-4.55 2.27-4.94 3.16-.31 5.18.45 4.95 4.57z"/><path d="M485.88 442.25c4.87-3.65 4.68-9.75 6.7-14.68 4.16-10.17 7.07-20.89 10.26-31.4 3.3-10.89 8.32-21.11 11.18-32.13 1.76-6.8 4.84-13.26 6.72-20 1.24-4.5 3.13-8.89 3.2-13.73 0-2.89-1.29-4.63-3.8-5-3.9-.56-7.21-2.47-10.6-4.1-4.23-2-6.59-.78-8.93 3-4 6.35-6.3 13.44-9.76 20-4.67 8.85-11.09 16.42-16.9 24.46a125.73 125.73 0 0 1-19.24 21.67c-20.77 18.06-43.77 31.29-71.74 34.83a132.57 132.57 0 0 1-50.07-2.76c-20.66-5.31-38.78-15.74-55.77-28.51-12.75-9.58-22.42-21.75-31.33-34.64-7.5-10.84-14.5-22.18-19-34.51-2.14-5.92-6.16-11.87-4.91-18.87 1.87.82 1.7 2.73 2.2 4.24 9.86 29.78 25.38 56 48.84 77.16 19 17.13 40.85 29.55 66 34.61q57.22 11.51 103.86-24.55c26.23-20.36 43.42-47 56.25-76.92 1.43-3.34 2.54-4.24 6.08-2.69a144.86 144.86 0 0 0 18.25 6.67c3.93 1.13 4.86 2.4 3.47 6.44-5.74 16.67-11.44 33.37-16.53 50.25-5.9 19.58-14.22 38.39-18.68 58.43-.74 3.62-3.3 2.89-5.75 2.73zM1208.94 1071.23v-17.47c0-1.5-.78-3.67 1.84-3.84 1.87-.12 4.33-.81 4.94 2s1.8 2.09 3.34.87c4.07-3.21 8.67-4 13.68-3 1.72.33 3.57.89 4.25 2.32 2.43 5.05 4.45 3 7.72.54 10.12-7.56 21.06-2.6 21.84 9.93.58 9.29.13 18.63.3 28 .05 2.9-1.64 2.78-3.56 2.62-2.15-.18-4.8.74-4.69-3.21.22-7.82.1-15.64.13-23.46 0-7.62-1.58-10-7.07-10.23-6.23-.33-9.85 3.21-10 10.29-.21 7.82-.16 15.65-.09 23.47 0 2.39-.33 3.92-3.24 3.51-2.29-.32-4.64 0-4.49-3.66.26-6.64.11-13.31.06-20a45.07 45.07 0 0 0-.42-6.47c-.76-4.87-3.68-7.82-7.16-7.51-4.48.4-9.31 4.65-9.44 8.61-.29 8.32-.61 16.64-.5 25 .06 3.86-2 3.7-4.68 3.86-3.46.22-3.13-1.85-3.1-4.13.08-6 0-12 0-18zM341.48 1050.07c3.33 0 6.66-.09 10 0 1.3.05 3.44-.56 3.26 1.84-.14 1.94-.51 4.34-3.4 3.86-4.38-.73-4.35 1-3.37 4.55 3.26 11.81-2.6 19.58-14.85 20.19a42.17 42.17 0 0 0-6 .34c-2.47.46-3.62 2.43-3.6 4.75 0 2.56 2 3.09 4.18 3.17 5 .18 10 .41 15 .77 6.21.45 10.08 3.07 11.27 7.4 1.28 4.66-.85 10.37-5.13 13.74-6.64 5.22-22.36 6-29.54 1.52-4.78-3-6.19-9.89-2.54-14.29 2.38-2.88 3.43-5.33 1.22-8.84-1.71-2.7-.24-5 2-6.95 1.87-1.6 2.68-3 .27-5.19-4.95-4.55-4.53-10.5-2.74-16.21a14.66 14.66 0 0 1 13-10.72c3.61-.41 7.31-.07 11-.07zm-8.82 45h-2.85c-5.29 0-7.87 2.42-8.16 7.78-.23 4.24 2 6.22 7.56 6.41 2.82.1 5.66-.1 8.48-.27 3.83-.22 6.48-2.33 8.37-5.53 2.43-4.13 1.37-6.74-3.29-7.52-2.95-.46-5.97-.5-10.11-.83zm.59-40.37c-5.81.09-8.93 4.3-8.87 12 .05 5.25 3.36 9 8 8.93 5.47 0 9.23-4 9.15-9.67-.11-7.46-2.94-11.3-8.28-11.22zM185.84 1052.94c13.95-9.45 27-1.66 28.17 14 .5 6.63 0 13-3.59 18.81-5.41 8.9-14.18 11.08-23.15 5.74-1.52-.9-3.06-3.11-4 .77-.51 2-2.86 1.07-4.42 1-1.91-.12-1.71-1.63-1.7-3 .12-19.66.32-39.32.29-59 0-4.35 2.87-3 5.08-3.33 2.71-.41 3.43.78 3.38 3.37-.16 6.96-.06 13.89-.06 21.64zm-.15 18.24c0 3.16-.12 6.33 0 9.48.17 3.65 2.41 5.74 5.82 6.5 4.66 1 9.88-1 12-5.24a25 25 0 0 0 .81-20.81 9.59 9.59 0 0 0-10.46-6c-5.12 1.07-8.11 4.7-8.2 10 0 2.07.03 4.07.03 6.07zM1606.11 961.52c15.61.93 30.85 3 43.54 13.49 9.35 7.77 9.74 11.89 1.43 20.77-5.44 5.82-8.15 6-13.74.44a203.77 203.77 0 0 0-35.55-28.16c-1.76-1.1-4.3-1.68-3.21-4.72.92-2.6 3.07-2.06 5-2 .86.05 1.7.12 2.53.18zM438.22 1094.19c-5.46.29-10.07-1.87-14.55-4.63-2.38-1.47-2.54-3.28-1.36-5.51 1.39-2.62 2.86-1.1 4.47-.16 4.65 2.75 9.8 3.2 15 2.59 4.24-.49 7.66-2.51 8.6-7.11a10.37 10.37 0 0 0-5.46-11.28c-5.1-2.43-10.46-4.33-15.48-6.91-8.91-4.57-10.71-18.2-3.53-25.2 7.55-7.38 21.64-7.78 30-1.25 2.86 2.24 1.27 4 .36 5.91-1.21 2.62-2.89 1.48-4.44.35a19.88 19.88 0 0 0-11.12-4c-5.1-.18-9.2 2.61-10.31 7-1.22 4.81.56 8.27 5.91 10.57a104.75 104.75 0 0 1 14.7 7.4c7.17 4.53 9.91 10.13 8.55 17.07-1.32 6.74-7.89 13.27-14.86 14.59-2.14.38-4.33.38-6.48.57zM299.25 1088c-2.24.08-3 1.55-4.14 2.44-9.05 7.21-20.48 3.89-23.9-7.18a34.67 34.67 0 0 1 1.36-24c3.39-8.16 11.42-11.91 21.14-9.68 4.14.95 5.2 0 4.87-4-.35-4.31-.11-8.67-.39-13-.2-3.17.75-4.45 4.16-4.43 3.2 0 3.84 1.16 3.81 4.12q-.26 29.22-.14 58.44c0 2.9-1.51 2.77-3.44 2.8s-3.83.11-3.35-2.79a19 19 0 0 0 .02-2.72zm-1.35-17.44h-.16c0-2.5.12-5 0-7.49-.35-6.33-3.22-8.62-9.43-7.7a10.22 10.22 0 0 0-8.2 5.78c-2.89 5.81-3.13 11.91-1.65 18 1.53 6.29 4.89 8.7 10.14 8 6.68-.92 9.24-3.82 9.32-10.6 0-1.96-.02-3.96-.02-5.96zM566.13 1088.36c-1.9 1.18-3.77 2.48-5.77 3.54-9.18 4.87-17.41 2-20.86-7.73a30.71 30.71 0 0 1 1.92-25.57c5.07-9.37 11.85-11.39 24.58-7.69 0-6.23.35-12.28-.11-18.27-.36-4.77 2.5-4.36 5.53-4.72 4.16-.48 3.14 2.43 3.12 4.53q-.25 28.44-.66 56.86c0 1.85 1.19 4.5-2.64 4.59-3.47.09-4.91-1.13-4.42-4.58.03-.21-.33-.47-.69-.96zm.26-17.82h-.34v-7.46c0-3-.44-5.77-3.57-7-3.55-1.41-7.16-1.71-10.37.88a14.11 14.11 0 0 0-4.44 5.89c-2.36 6.07-2.28 12.33-1.24 18.6a6.18 6.18 0 0 0 4.68 5.26c7.8 2.15 15.16-3.22 15.27-11.18.03-1.68.01-3.33.01-4.99zM766.8 614c4.83-.42 7.07 3.74 10.4 5.93 1.38.91 2.6 2.6 4.31 2 5-1.87 8.73 1.44 12.91 2.9a15.3 15.3 0 0 0 4.24 1.21c2.76.16 5.62 0 7.23-2.29s-.67-4.18-1.62-6.19c-2-4.2-5.85-7.64-5.3-12.89 9.07 10.5 15.14 22.69 19.82 35.61 6 16.66 9.1 34 10.9 51.77-1.56-.19-1.62-1.35-2-2.33-10-26.73-27-48.21-49.36-65.69-3.99-3.21-7.69-6.73-11.53-10.03zM8.86 1063.18a38.93 38.93 0 0 1 4.9-20.67 26.85 26.85 0 0 1 33.24-12.1 16.26 16.26 0 0 1 7.66 5.4c2.25 3-.83 4.52-2.1 6.32-1.62 2.31-2.59.26-3.71-.94-6.81-7.24-19.11-6.3-25.4 1.9-6.63 8.65-7 28.07-.78 37.11 4.58 6.62 14.55 9.19 21.87 5.58 1.49-.73 2.77-1.92 4.3-2.52s3-3.73 4.94-1c1.79 2.47 1.46 4.76-1.23 6.86-11.45 8.95-34.65 8.9-41.59-12.24a41.49 41.49 0 0 1-2.1-13.7zM1130.92 1060.84v28.42c0 1.78.37 3.83-2.42 4-2 .11-3.88.83-4.09-2.53-.16-2.57-2.31-1-3.47-.62-2.5.84-4.46 2.78-7.16 3.37-5.84 1.27-10.42-.33-14-5.18-6.21-8.54-6.31-23.44-.21-32 4.42-6.22 12.73-9.33 19.79-6.74 3.79 1.4 3.7-.18 3.58-3-.19-4.48.1-9-.26-13.46-.35-4.28 2.48-3.7 5.09-4.08 3.48-.5 3.23 1.61 3.22 3.9v27.93zm-7.48 9.09c-.09-1.9-.3-4.56-.32-7.22 0-3.63-1-6.71-4.93-7.66s-8.11-1-10.8 2.87c-4.14 6-6 12.6-4.4 19.83 1.47 6.62 5.27 9.63 10.6 8.8 7.38-1.15 10.05-4.24 9.85-11.37-.04-1.5 0-3 0-5.25zM774.74 1063.42a31.52 31.52 0 0 0 1.38 10.35c4.11 13.16 18 17.71 29.24 9.59 1.52-1.1 2.74-3.15 5.15-1.48 3.13 2.17 3.1 4.66-.18 7-17.56 12.65-39.93 3.84-43.82-17.4a41.58 41.58 0 0 1 5.88-30.64c8.06-12.75 26.24-15.79 38.2-6.7 3.09 2.35 3.71 4.28 1.56 7.73-2 3.21-3.28 2.51-5.16.24-7-8.47-19-8.32-25.69.32a30.84 30.84 0 0 0-6.56 20.99zM833.08 1052.43c2.28-1 3.74-1.78 5.26-2.4 10.34-4.2 18.9.55 20.51 11.58 1.42 9.76.57 19.62 1 29.43.12 2.53-1.37 2.73-3.21 2.32s-4.85 1.05-4.84-3.08c0-8.48.26-17-.74-25.44-1-8.25-6.51-11-13.87-7.26a6.86 6.86 0 0 0-4.09 6.76c0 8.33-.42 16.66-.1 25 .19 5-3 4.06-5.84 4.38-4.19.48-2.48-2.71-2.48-4.36 0-19.31.19-38.62.06-57.93 0-3.82 1.52-4.15 4.66-4.31 3.54-.18 3.71 1.52 3.66 4.19-.06 6.77.02 13.56.02 21.12zM1514.91 1054.75c1.71-1.18 3.18-2.23 4.67-3.23 9.19-6.12 19.53-1.89 21 9 1.29 9.91.53 19.94.38 29.91-.06 3.9-3.4 2-5.35 2.48-2.16.48-2.85-.56-2.83-2.76.08-8.48.18-17-.12-25.44-.24-6.61-2-8-8.7-8-5.6 0-8.67 2.61-8.94 8.36-.36 7.64-.7 15.3-.4 22.93.17 4.36-1.4 5.13-5.28 5.24-5 .14-3.21-3.26-3.23-5.42q-.09-17 .22-33.93c0-1.45-1.58-4.24 1.65-4.12 2.28.09 5.72-1.29 6.33 2.89a14.71 14.71 0 0 0 .6 2.09zM1210.89 955.86c-2.13-.19-2-1.76-2.07-3.28-.52-9.24-1.57-18.48-.94-27.73.6-8.74-5.39-13.63-14.42-11.68-1.45.31-2.91.57-4.36.86a102 102 0 0 1 0-16.21c.1-.08.3-.18.28-.24a3.06 3.06 0 0 0-.25-.63c-.89-2.07-2.74-1.52-4.32-1.51-3.5 0-7 .17-10.49.27-3.77.09-6.09-3-5.2-6.65.41-1.69 1.56-1.36 2.7-1.35 3.16 0 6.33-.06 9.48.1 5.25.25 10-.67 13.21-5.31 1.51-2.15 3.16-1.84 5.07-.4 4.78 3.6 9.64 7.09 14.46 10.65 3.22 2.38 2.47 4.63-.72 5.9-2.92 1.17-3.48 3-3.41 5.8.44 17.14-.23 34.29.98 51.41zM1458 1072.72c.37-6.38 1.17-12.69 5.58-17.73 9.26-10.55 27.07-7.32 32.44 6.1 3.77 9.42 2.84 18.68-3.68 26.82-5.3 6.63-12.68 7.08-20 5.26-8-2-12.3-8-14-16a33.23 33.23 0 0 1-.34-4.45zm31.3-1.23c-.17-4.2-.76-8.29-3.18-11.86-2.58-3.81-6.23-5.28-10.76-4.7-4.27.55-6.21 3.5-7.28 7.22-1.29 4.49-2.11 9.09-1.35 13.76 1.37 8.48 5.92 12.27 12.93 11 6.12-1.15 9.93-7.23 9.6-15.42zM1159.85 1073.18c.11-12.84 6.17-21.84 16.1-23.93a19.25 19.25 0 0 1 21.69 11.11 26.6 26.6 0 0 1 .67 20c-3.49 10-12.17 15.12-22.24 13.45-8.84-1.51-16.3-10.98-16.22-20.63zm31.45-2.47a47.37 47.37 0 0 0-.85-6.23c-1.64-6.35-4.64-9-10.1-9.3-5.22-.29-8.32 1.92-10.88 7.72a20.52 20.52 0 0 0-1.5 12.66c1.7 8.4 9.15 13.6 15.74 10.87 6.76-2.81 7.14-8.95 7.59-15.72zM634.92 1056c5.15-4.52 9.87-7.93 16.58-6.33 5.28 1.26 8.7 4 9.59 10 1.56 10.41.93 20.93 1 31.41 0 3.16-2.35 2.13-4 2.1-1.84 0-4.09.62-4.09-2.73 0-7.15-.27-14.31-.44-21.46 0-1-.09-2-.17-3-.56-7.1-2.72-10.14-7.18-10.12a11.46 11.46 0 0 0-11.05 11.13c-.17 7.48-.2 15 0 22.46.07 3-1 3.7-3.75 3.54-2.38-.15-4-.14-3.95-3.44.23-12 .11-24 .14-36 0-1.91-.57-4.22 2.77-3.95 2.55.21 4.76.51 4.24 3.94a12.2 12.2 0 0 0 .31 2.45zM379.08 1072.26a73.05 73.05 0 0 1-8.17-.06c-4.56-.45-5 1.78-4.13 5.37 1.71 7.43 6.05 10.69 13.63 9.91a46.7 46.7 0 0 0 7.34-1.34c1.67-.45 2.8-.67 3.44 1.4.49 1.61.73 2.92-1.1 3.72-7 3.08-14.2 4.88-21.61 1.35-7.21-3.43-10.28-9.42-10.59-17.24-.36-8.78.46-16.93 8.24-22.8 5.66-4.27 14.88-4.67 21.08-.54 5.2 3.46 8.72 13.21 7.11 19.15-.5 1.83-1.62 1.85-3 1.77-3.64-.19-7.32-.41-12.24-.69zm-4.17-4.8v-.38c2.65 0 5.29.05 7.93 0 1.06 0 2.22.23 2.7-1.41 1.64-5.63-1.67-10.38-7.5-10.84-5.24-.41-8.38 2.26-10.6 6.57-2.73 5.3-2.22 6.17 3.51 6.08 1.32-.04 2.64-.02 3.96-.02zM1583.3 1078.18v11.46c0 1.35 1.15 3.33-1.18 3.61-1.86.23-4.7.63-5.28-1.56-1.13-4.2-2.88-2.47-4.79-1a17.15 17.15 0 0 1-10.22 3.48c-4.9.1-9.81-3.12-11.43-7.4a11.86 11.86 0 0 1 3.45-13.88c4.59-4 10.22-5.33 15.88-6.74 1.93-.48 4.73-.24 4.49-3.43-.23-3-.66-5.94-4.37-7a15.68 15.68 0 0 0-12.48 1.75c-2.52 1.44-3.45.56-4.71-1.31-1.82-2.72.58-3 2.07-3.79 4.18-2.12 8.49-3.79 13.33-3.51 7.52.44 12.92 5 13.9 12.45.74 5.58.83 11.26 1.21 16.89zm-8.53-1.72c-1.32-1.26 1.68-5.58-1.8-5.37-4.75.29-10 1.18-13.5 5.28-3.25 3.79-1.87 10.21 2.28 11.13 6.25 1.36 12.88-3.99 13.02-11.04zM521.14 1087.93c-4 2.6-6.95 5.11-10.77 6.1-7.74 2-13.91-1.59-14.89-9.51-1.33-10.75-.59-21.6-.74-32.41-.05-3.49 2.77-2 4.42-2.33 2.25-.51 3.31.35 3.29 2.88-.07 6.49.06 13 .18 19.47a62.21 62.21 0 0 0 .43 7c.54 4.05 1 8.14 6.79 7.89 6-.25 11-3.91 11.17-9.12.23-8 .19-16-.06-23.95-.1-3.17.66-4.27 4-4.37 3.75-.12 3.82 1.71 3.81 4.53-.06 11.31.18 22.63 0 33.94 0 1.88 2.44 5.24-2 5.82-4.04.48-6.02-1.16-5.63-5.94zM1034.21 1072.12c-3.33 0-6.68.21-10-.06-3.46-.28-3.82 1.27-3.37 4.14 1.64 10.56 10.46 14.78 20.55 9.52 1.71-.89 2.95-1.74 4 .3s.65 3.61-1.58 5c-14.22 8.54-29.63 1.48-31.84-14.84a26.15 26.15 0 0 1 6.43-21.32 16.35 16.35 0 0 1 27.41 4.37 34.42 34.42 0 0 1 1.69 5.21c1.68 7.08 1.16 7.72-5.83 7.69h-7.49zm-4-5v-.12h8c.91 0 2.42.26 2.25-1.13-.47-4-1.14-8.27-4.91-10.44a8.3 8.3 0 0 0-10.53 1.55 18.25 18.25 0 0 0-3.3 4.94c-2.15 4.46-1.54 5.27 3.52 5.18 1.69-.02 3.35 0 5.02 0zM899.82 1055.48a15.64 15.64 0 0 1 12.51-6.47c6.15-.36 10.19 2.19 12.34 8s1.9 12.11 2 18.25c.06 4.82-.12 9.65 0 14.47.09 2.61-.82 3.63-3.43 3.46-2.29-.15-4.22-.15-4.24-3.39 0-8.15-.08-16.31-.63-24.43s-6.46-11.66-12.93-8.26c-3.7 1.94-5.32 5.29-5.35 9.46-.05 7.48-.2 15-.18 22.45 0 2.69-.41 4.36-3.76 4.37s-3.54-1.81-3.52-4.41c.05-11.14-.14-22.29 0-33.43 0-1.89-1.8-5 2-5.55 3.65-.6 5.91.58 5.19 5.48zM583.65 1072.18a23.08 23.08 0 0 1 4-15.11 17.71 17.71 0 0 1 19.15-7.45c6.17 1.45 10.73 7 11.9 14.47 1.35 8.66 1.35 8.67-7.31 8.79-5.15.08-10.32.37-15.46.12-4-.2-4.36 1.25-3.45 4.65 2.09 7.8 6.36 10.62 15.31 9.58 1.3-.16 2.57-.64 3.87-.9 1.91-.39 4.14-1.33 4.92 1.52.66 2.45-.88 3.61-3 4.35-15.36 5.35-30.41.12-29.93-20.02zm8.56-4.51a7.24 7.24 0 0 0 1.54.39c4-.06 8-.08 12-.27 6.46-.3 8-3.15 4.75-8.85-2.24-3.91-6-4.55-10-3.53-6.33 1.59-7.63 6.69-8.29 12.26zM1640.13 1084.4c3.5-10.16 6.44-19.12 8.77-28.29 1.76-6.92 1.83-6.9 9.56-5.95-3.93 13.74-9.34 26.93-14.29 40.28-1.73 4.67-3.21 9.46-5.34 13.94-2.93 6.15-8.72 8.7-15.37 7.7-1.87-.28-2.31-1.11-1.94-2.61s-.9-3.24 1.87-3.81c9.84-2 13.93-8.84 10.67-18.54-3.71-11-8.16-21.79-12.09-32.74-.46-1.28-3.18-3.58-.12-4.3 2.29-.54 5.84-2.44 7.31 2.3 2.95 9.52 6.33 18.91 9.55 28.35.29.75.57 1.48 1.42 3.67zM956.87 1072.48c-3.33 0-6.66.12-10 0-4-.19-4.44 1.71-3.41 5 2.61 8.3 8.35 11.37 18 9.78 2.51-.42 6.3-3.06 7.33.8.89 3.37-3.55 3.81-5.94 4.69-14.94 5.51-28.75-5.06-27.63-21 .53-7.53 2.35-14.43 8.83-19.27 5.4-4 13.28-4.73 18.17-1.42 6.3 4.27 10 13.15 8.43 19.57-.44 1.75-1.43 2-2.86 2h-11zm-3.71-4.94v.11c2.66-.14 5.32-.27 8-.45 1.14-.08 2.11-.06 2.13-1.91 0-4.58-2.41-8.84-6.12-9.91a10.09 10.09 0 0 0-11.38 5c-3.48 6.19-3 7.09 3.89 7.13zM86.86 1088.58c-4 3.66-8.22 4.74-12.78 5.31s-8-.74-10-4.79c-2.17-4.37-2.78-8.87.51-13.16 4.3-5.61 10.56-7.06 17-8.4 1.75-.36 5.12 1 5.13-2.23 0-3.41-.59-7.21-4.69-8.57a12.27 12.27 0 0 0-11.83 1.79c-1.87 1.42-3.7 2.18-5.11 0s-.11-3.71 1.93-4.83c4.88-2.67 9.86-4.7 15.63-4.24 6.09.48 10.64 3.78 11.52 9.76 1.57 10.57.28 21.28.85 31.91.09 1.61-1 1.88-2.18 2.15-1.7.4-3.4.52-4.5-1.13a21.92 21.92 0 0 1-1.48-3.57zm.54-12.09c-1-1 1.92-4.43-2.12-4.32-4.32.11-8.61.84-12.24 3.52-3.31 2.44-3.72 5.78-2.33 9.33 1.47 3.76 4.71 3.09 7.64 2.46 6.37-1.36 8.65-4.1 9.05-10.99zM793.41 74.44c2.81.15 3.66 2.46 4.88 4.4 7.93 12.54 11.51 26.63 14.53 40.91a23.15 23.15 0 0 1 .93 4.86c0 3.09 1.66 3.74 4.16 3.3q8.55-1.47 17.06-3.15c2.38-.47 3.13-2.21 2.88-4.5-1.88-17.3-1.47-34.73-2.68-52.09-.86-12.37-2-24.84-1.29-37.31.29-4.75-1.59-6.69-6.32-8.31-18.84-6.44-38.08-11.35-57.42-15.84C751.82 2.46 733 .56 714.35 2.26a159.14 159.14 0 0 0-57.51 16.26c-1.64.82-3.23 1.81-5.19 1.29A155.53 155.53 0 0 1 737.53.45c29.94 1.87 58.47 10.46 86.82 19.6.44.14.77.66 1.21.78 10 2.85 9.84 2.85 10.25 12.93q1.49 36.42 3.33 72.82c.3 5.74-1.36 11.52.55 17.24.4 1.22-.86 2-2.1 2.26-7.35 1.31-14.72 2.53-22.06 3.92-2.43.46-2.56-.74-2.88-2.65-2.75-16.29-6.48-32.28-15.33-46.56zM1202.89 876c-3.17.1-4.62-1-5.76-2.9-6.2-10.06-12.46-20.1-18.68-30.15-.51-.81-1.5-1.58-1-2.63s1.73-.91 2.65-.65c12.28 3.39 24.44 7 32.87 17.57 4.12 5.15 4.08 7.26-.21 12.21-2.89 3.32-6.11 6.18-9.87 6.55zM1307.84 561.85c2.45-1.66 5.07-.85 7.67-.55 10.33 1.23 20.66 2.5 31 3.61q19.21 2 38.47 3.84c6.6.62 13.23.46 19.86 1a538 538 0 0 0 67.3 1c24.25-1.09 48.44-3.59 72.1-9.87 7.35-2 14.13-5.72 21.79-6.49 4.22-.43 4.54-2.69 2.58-5.75-5.11-8-8.63-16.7-12.52-25.24a147.4 147.4 0 0 1-10.24-30.4c-.79-3.72-3.52-2.79-5.77-3.29 1.17-.59 2.35-1.16 3.5-1.78 2.14-1.15 3-.78 3.56 1.86 4.66 21.17 13.89 40.52 24.35 59.31 2.19 3.93 1.46 4.71-2.62 6.1-48.39 16.45-98.27 19.22-148.8 17.07-36.93-1.57-73.65-5.29-110.28-10-.66-.12-1.3-.27-1.95-.42zM500.62 32c-11.77-6.61-25.15-8.2-37.75-12.2-12.33-3.91-25-6.47-37.4-9.81-13.81-3.71-28-4.67-42.18-6.16a205.88 205.88 0 0 0-29.88-.7c-17.53.7-34.79 3.06-51.78 8.21-16.17 4.91-32 10.47-47.2 17.78-13.47 6.5-27 13-38.75 22.69-3.07 2.53-6.22 6-11 6 2.53-4 6.75-6.18 10.44-8.61 34.66-22.82 72-39.29 113.25-45.8 35.78-5.65 70.95-1.59 105.86 6.72 21.34 5.08 42.21 11.82 63.46 17.21 2.86.77 3.48 2.19 2.93 4.67zM1343.56 839.21c12 3.95 24.53 6.6 34 15.62 3 2.85 6 6.19 3.64 10.92-2.62 5.34-6.74 9.2-12.7 10.15-2.73.43-4.93-1.67-6.34-4.12-2.3-4-4.54-8.1-6.87-12.12-3.92-6.66-6.91-13.94-11.73-20.45zM991.25 1093.77a20.53 20.53 0 0 1-12.89-3.32c-1.63-1-2.39-2.23-1.33-4.14s2.31-1.79 4.11-.84c4.05 2.12 8.34 3.29 13 2.26 2.31-.51 3.89-1.52 4.39-4.08s-.16-4.36-2.23-5.58c-3-1.78-6.09-3.42-9.21-5-7.58-3.84-10.8-10.19-8.24-16.43 2.68-6.58 10.4-9.68 18.13-7.15a33.51 33.51 0 0 1 5.37 2.58c1.89 1 2 2.35.65 4-1.19 1.42-2 2.41-3.9.61-2.31-2.17-5.49-2.12-8.51-2-2.74.08-4.79 1.15-5.43 4.13a5.08 5.08 0 0 0 2.91 6.19c3.71 1.88 7.5 3.59 11.16 5.57 6.65 3.6 8.87 7.24 7.84 12.41-1.13 5.62-6.48 10.1-12.92 10.74a25.87 25.87 0 0 1-2.9.05zM722.69 1094a27.82 27.82 0 0 1-10.2-2.29c-2.21-.87-3.13-2.46-2-4.75s2.67-2 4.53-.83a13.75 13.75 0 0 0 10.61 1.46 6.85 6.85 0 0 0 5.48-5.22c.74-3-1.12-4.77-3.32-6.09-3.41-2-7-3.91-10.48-5.76a10.45 10.45 0 0 1-2.27-17.4c5.45-5 16.81-5.27 22.39-.73 1.73 1.41.47 2.72.13 4s-1.43 1.72-2.71 1a17 17 0 0 0-9.18-1.82c-2.63.12-4.91.85-5.79 3.77s.8 4.78 3.05 6.12c3 1.78 6.19 3.23 9.16 5.06 4.4 2.72 8.15 5.9 7.1 12-.93 5.33-5 9.38-11.12 10.73-1.73.43-3.57.54-5.38.75zM39.18 953.31c.43 2.59-.71 4.27-2.72 5.53-1.55 1-3.06 2-4.68 2.85-7.3 3.8-7.77 3.46-9.19-4.59a335.62 335.62 0 0 0-8.86-36.83c-.42-1.42-.76-2.88-1.08-4.34-.16-.78-.5-1.68.44-2.22s1.66.14 2.21.62c12.09 10.48 21.43 22.67 23.88 38.98zM468.84 1071.11c0-3.5-.08-7 0-10.5.09-2.76-.06-5.08-3.79-4.83-1.69.11-2.43-.89-2.16-2.54.22-1.42 0-3.52 2.12-3.32 4.76.45 4.23-2.88 4.72-5.79.32-2-.69-4.53 2.07-5.61 4.29-1.67 6-.47 5.89 4.2-.12 6.45-.12 6.53 6.7 7 2.05.15 3 .59 2.82 2.9-.15 2.06-.24 3.31-2.92 3.41-6.71.27-6.73.43-6.74 7.35 0 6 0 12 .05 18 0 4.13 1.37 6.91 6.23 6.08 1.38-.23 2.93-.44 2.85 1.58-.07 1.82.76 4-2 5-7.36 2.56-14.69-1.68-15.44-9.44-.43-4.46-.08-9-.08-13.48z"/><path d="M243.89 119c-.42-6.09 4.54-9.8 7-14.47 1.87-3.54 5.37-6.57 7.48-10.34 4.08-7.28 11.63-11.53 15.63-19.1 1.49-2.82 6.33-4.32 9.37-6.94a132.94 132.94 0 0 1 29.15-19.35 120.35 120.35 0 0 1 64.08-11.62c11.53 1 22.67 4.58 33.51 8.86 12.52 4.93 24.32 11.22 34.1 20.39 5 4.66 11.93 8.1 13.39 15.89-10.4-11.07-21.61-21-35-28.51-43.86-24.42-98.6-18.3-136.44 14.78-15.81 13.82-28.63 29.82-39.81 47.41a33.2 33.2 0 0 1-2.46 3zM674.9 1070.2c0-3-.13-6 0-9 .18-3.18.67-6.31-4.33-4.74-1.88.59-2.31-.82-2.32-2.27s-1-3.71 1.25-3.59c6.63.35 5.78-4.17 6-8.27.09-1.66-1.1-4.3 2.55-4.07 2.9.19 4.85.83 4.27 4.33-.19 1.13.12 2.33 0 3.49-.27 3.36 1 4.87 4.56 4.45 2.1-.24 4.8-1 4.83 2.91s-2.63 3.41-4.78 3.07c-3.75-.59-4.55 1-4.45 4.36.18 6.81-.08 13.64.12 20.45.12 4.27 1.45 7.69 7 6.18 1.31-.36 2.78-.6 3 1.39s.2 3.62-2 4.55a11.05 11.05 0 0 1-14.53-6.42c-1.86-5.49-.85-11.21-1.17-16.82zM1423.94 1070.56v9c0 6.62.92 7.52 7.39 7.75 1.54.06 3.61-.78 3.68 2 0 2.07-.92 3.27-3 4-8.43 2.79-13.66-.23-15.08-9-1.29-7.93-.75-15.94-.91-23.92 0-2.61.2-5-3.53-5a2.37 2.37 0 0 1-2.64-2.41c0-1.94 1.55-2 2.8-2 5.21-.14 3.71-4.14 4-7 .22-2.36-.16-4.46 3.43-4.65 3.37-.18 5.07.34 4.46 4.1-.82 5 .94 7.59 6.43 6.61 2.12-.38 3.82-.24 3.93 2.84s-1.29 3.21-3.6 3.29c-7 .23-7 .3-7.15 7.49v7zM385.29 836.73c11.06 3.28 20.4 7.3 26.36 16.56 2.19 3.39 4.32 6.88 1.44 11-3.36 4.81-7.56 8.42-13.7 8.76-2.64.14-3.73-2.09-4.28-4.18-2.79-10.54-5.85-20.98-9.82-32.14zM1424.32 888.61c-9.65 0-19.3.06-29 0-3.72 0-5.58-2.56-5-6.11.31-1.81 1.39-1.26 2.57-1.24 12.47.14 25 .09 37.42.37 5.15.11 9.57-1.18 13-5 2-2.29 3.67-2.13 5.85-.25 2 1.73 4.42 3 6.47 4.66 1.46 1.2 3.77 2.4 2.84 4.71-.72 1.78-2.89 1.94-4.78 2-3.83.11-7.65.37-11.47.42-6 .07-12 0-18 0zM1374.06 1073.1c-.13-17.79 11.64-27.79 26.18-23.29a15.7 15.7 0 0 1 3.57 1.67c1.82 1.12 1.52 2.85.85 4.42-.77 1.81-2.23 1.49-3.8 1-8.37-2.52-13.68-1.13-17.62 4.5-3.33 4.76-2.89 16.76.94 21.41 3.38 4.1 7.81 5.48 13 4.23a35.89 35.89 0 0 0 4.23-1.47c1.78-.7 3.56-1.41 4.68.92s-.43 3.49-2.08 4.4c-11.62 6.45-23.71 3.66-28.38-9.57a33.09 33.09 0 0 1-1.57-8.22zM62 939.23c.12 6.4-7.91 14.94-13.73 15.33-2.17.14-2-1.29-2.13-2.54-1.53-13.23-2.77-26.5-6.25-39.42-.27-1-.46-2.15.63-2.64a4.14 4.14 0 0 1 4.6 1 56.78 56.78 0 0 1 12.48 16.09 41.09 41.09 0 0 1 4.4 12.18zM1309.81 510.07c-5.75 2.33-11.43.25-17.09-.37-13.46-1.47-26.9-3.13-40.34-4.77-12.3-1.5-24.6-3-36.87-4.63-10-1.36-20.06-2.22-30.07-3.14-19.79-1.8-39.66-3.93-59.55-3.07s-39.68 1.31-59.35 4.6c-8.62 1.45-17.37 2.2-25.92 4.13a2.49 2.49 0 0 1-2.73-.77c14.47-4.17 29.39-5.72 44.27-7.22 46-4.66 91.76-1.74 137.46 4.41 30.01 4.04 60.12 7.25 90.19 10.83zM1085.91 1062.29v26.45c0 2.27.66 4.8-3.3 4.3-2.75-.35-5.54.52-5.47-4.06.19-12.81 0-25.62-.06-38.42 0-5-.16-10 0-15 .06-1.9-1.5-5.08 2.89-4.66 3.25.32 6.46-.57 6.12 4.92-.54 8.78-.15 17.63-.15 26.44zM232.62 1055.7c2.82-1.08 4.2-3.52 6.3-5.09a8.16 8.16 0 0 1 7.11-1.47c2.68.75.57 3.47 1.28 5.23s-.24 2.49-2.31 2.63c-8.51.55-11.7 3.74-12.2 12.29a187.81 187.81 0 0 0-.41 19c.17 4.1-1.11 5.62-5.18 5.69-4.83.07-2.7-3.35-2.75-5.27q-.44-16.74-.37-33.49c0-2-1.8-5.16 2.74-5.47 3.77-.25 5.18 1.18 5.13 4.69.04.26.28.56.66 1.26z"/><path d="M457.52 82.23c6.39 4.06 10.29 10.24 13.17 16.87 4.57 10.55 8.51 21.37 12.66 32.1a17.12 17.12 0 0 1 .56 3.4c1 6.74 2.45 8.11 8.89 7.29a112.78 112.78 0 0 0 13.52-2.89c2.84-.73 3.68-2.61 3.25-5.69-1.72-12.24-3.15-24.52-4.7-36.79-1.88-14.89-2.7-29.89-4.7-44.78-.77-5.76-1.31-11.84.58-17.68 2.71 25.82 5.38 51.65 8.16 77.46.87 8.1 1.74 16.23 3.16 24.25.73 4.11-.77 5-4.36 5.63-6.56 1.08-13.08 2.51-19.54 4.14-2.84.72-3.89.51-4.65-2.73A209.76 209.76 0 0 0 470.89 105c-3.64-8.17-8.53-15.42-13.37-22.77zM889.81 575.85c-1.53 6.55-7.36 10-11.12 14.87-6.21 8-12.56 15.92-17.29 25-2.89 5.55-6.32 10.82-9.14 16.41-5.43 10.73-10.46 21.64-11.12 34.67 5-4.56 11.35-6.74 13.38-13.61.54-1.8 2.85-1.22 4.49-1.15-10.8 13.65-21.28 27.5-26 44.82l-1.61-.59c.85-5.09 1.65-10.2 2.55-15.29 6.94-39.3 25.44-72.7 52.18-101.86a42.68 42.68 0 0 1 3.68-3.27zM1594.71 1071.61v-18.46c0-1.39-.4-3.3 1.92-3.29 1.88 0 4.34-.74 5 2 1.13 5 3 3 5 .68a8.66 8.66 0 0 1 6-3.1c1.75-.11 4.26-2 4.45 1.63.12 2.33.6 4.76-3.31 5.34-8.38 1.25-11.53 5.47-11.44 14 .06 6.31-.13 12.65.32 18.94.29 4.07-2.14 3.44-4.58 3.76-3 .39-3.77-.77-3.7-3.56.15-6 0-12 0-18zM29.8 895.94c8.19-.28 16.38-.75 24.57-.77 6.07 0 11.49-1.26 15.77-5.83 2-2.17 3.53-1.67 5.1.66a90.84 90.84 0 0 0 6.59 8.77c2.52 2.9 1 4.13-1.71 4.83a13.06 13.06 0 0 1-4.94.31c-11.76-1.56-23.57-.82-35.37-.8h-2c-7.37-.25-7.84-.68-7.93-7.22zM1136.89 868.9c-4.77.38-6.86-3.19-9.33-6.26-4.06-5-8.25-10-12.25-15.07-.94-1.2-2.35-2.69-.89-4.44s3.18-2.63 5.69-1.84c6.19 2 12.32 4 17.77 7.7 5.68 3.82 6.34 7.1 3 13-.62 1.11-3.25 2-1.08 3.92l.05-.09-1.15-.07.06 1.15.09-.08-1.15-.07.06 1.15.08-.08-1.14-.06.06 1.14zM853.14 386.26c.18-5.89 4.15-10.27 6.38-15.3a103.15 103.15 0 0 0 9.28-40.84c.17-11.75.54-23.5-2.82-35.05-3.21-11-7.14-21.67-13.08-31.48-9.57-15.8-22.59-28.55-36.44-40.52-2.27-2-6.31-2-6.56-6.15 12.49 7.59 22.3 18 32 28.8a111.9 111.9 0 0 1 23.29 40.17c10.63 32.25 7.24 63.55-8 93.7-1.11 2.31-1.86 4.96-4.05 6.67zM743.3 177.86c-4.74 0-8.68-2.79-12.17-5.05-14.42-9.34-30.06-16.68-44-26.75-8.15-5.89-16.62-11.56-22.27-20.18-10.09-15.43-13.3-32-6.47-49.51a55 55 0 0 1 10.76-16.63c1.09-1.2 2.21-2 3.88-1.65-3.24 4.19-7.16 7.81-9.72 12.58-10.93 20.44-7.68 42.81 9.11 60.14 11.24 11.6 25 19.84 38.74 28 10.7 6.36 21.84 12.01 32.14 19.05zM571.85 322.08c-.17 18.39 2.24 36.59 3.78 54.87.76 9 1.88 18.14 1.26 27.28-.73 10.8 1.21 21.51 1 32.29-.07 3.05 1.53 4.06 4.17 4.42 8.17 1.1 16.39 2 24.4 4 5.1 1.31 10.08 3.1 15.45 3.16 1 0 1.68 1 2 2-12.74-2.22-25.45-4.57-38.21-6.64-9.75-1.59-9.74-1.44-9.82-11.56-.28-34.64-3.41-69.11-6.43-103.58-.15-1.65-.37-3.31-.38-5-.07-2.32 1.54-1.46 2.78-1.24zM879 1071.94c0 6.16-.11 12.33.05 18.48.06 2.48-.82 3.46-3.16 3-1.94-.39-4.95 1.15-4.86-3 .25-12.65.34-25.31.38-38 0-2.37.66-3.21 3.15-3 2.19.16 3.92.12 3.88 3-.09 6.49 0 13 0 19.47zM261 1071.86c0 6.15-.1 12.3.05 18.45.06 2.47-.88 3.5-3.18 2.94-1.85-.46-5.06 1.52-5-2.72.15-12.8.26-25.6.26-38.4 0-2.82 1.43-3.21 3.76-3.23 2.55 0 4.08.44 4 3.51-.15 6.48 0 13 0 19.45zM1449.12 1071.86c0 6.17-.16 12.33.07 18.48.11 3.07-1.48 3.07-3.69 3.1s-3.87 0-3.83-3c.17-12.66.21-25.31.26-38 0-2.26.69-3.42 3.22-3 1.95.29 4-.13 4 3-.13 6.49 0 13 0 19.47zM1364.71 1071.9c0 6-.18 12 .06 18 .15 3.64-2.11 3.41-4.48 3.62-2.6.24-3.45-.69-3.43-3.35.07-12.47.07-25-.17-37.42-.06-3.18 1.6-3 3.69-3s4-.47 4 2.73c-.1 6.48 0 13 0 19.45zM1150.24 1072c0 6-.12 12 0 17.93.07 2.45-.7 3.26-3.1 3.08-2.17-.16-4.2.34-4.15-3.17.15-12 0-23.91-.07-35.87 0-2.42.24-4.16 3.42-4.1s4 1.23 3.91 4.2c-.14 5.93 0 11.93-.01 17.93zM590.87 79c.58 5.41-2.64 9.8-4.39 14.45-6.17 16.38-7.64 33.35-6.3 50.44.63 8.09 3.72 16.06 6.21 23.92 5.21 16.42 15 30 26.86 42.28a4.82 4.82 0 0 1 1.62 3.93c-27-25.53-39.66-56.74-36.41-93.92A104.81 104.81 0 0 1 590.87 79zM571 548.57c6.37-.65 12.5-1.11 19 .88 5 1.55 10.73 1.86 16.14 2.36 16.88 1.55 33.17 5.61 49.47 10 15 4.06 29.69 9.15 44.15 14.6 8.26 3.11 17.48 5.25 24.17 11.93-15.62-6.05-31.09-12.53-46.9-18.05A395.16 395.16 0 0 0 591.22 551c-6.76-.79-13.52-1.63-20.22-2.43zM1527.82 494c-2.57 4.42-7.65 4.55-11.55 5.59a356.23 356.23 0 0 1-51.13 9.45c-16.78 2-33.55 3.41-50.44 4.14a164 164 0 0 1-22.7-.18c15.44-.85 30.9-1.46 46.31-2.6 30.39-2.27 60.42-6.8 89.51-16.4zM939.83 591.86c.68-2.6 3-3.49 5-4.36 13.25-5.67 26.14-12.19 39.88-16.71 18.53-6.08 37.07-12.15 56.49-14.77 2.12-.28 4.33-2.36 6.58-.22a413.24 413.24 0 0 0-48.41 11.87 440.81 440.81 0 0 0-55 22.31c-1.46.71-3.02 1.26-4.54 1.88zM708.79 1032.29c-.2 5.53-1.13 10.72-4.47 15.2-1 1.26-2.09 2.58-3.66 1.92-1.8-.75-.19-2.3-.17-3.48.1-4.66.47-9.32.46-14 0-2.77-.09-4.67 3.81-4.5s4.69 1.7 4.03 4.86zM627.46 224.5c3.61-.53 5.71 2.3 8.13 4q19.9 13.91 41.07 25.76c4.49 2.51 10.3 3.74 12.85 9.18C668 251.75 646.55 240 627.46 224.5zM632.86 31c-2.14 5-7.17 7.12-11 10.21-7.78 6.25-13.44 14.11-19.06 22.09-3.18 4.51-6.21 9.13-9.3 13.71-.65 1-1.21 2-2.62 2C600 58.73 614.25 42.94 632.86 31zM971.86 522.3c-3 5.32-9.19 5.39-13.83 7.76-14.1 7.18-27.14 16-40.61 24.15-1.42.86-2.67 2-4.49 1.75A251.94 251.94 0 0 1 960 527.4c3.9-1.83 7.91-3.4 11.86-5.1z"/><path d="M673 58.14c.09-3.32 2.82-5 4.93-6.51 15.13-10.9 32.07-16.06 50.78-14.43.41 0 .79.55 1.18.84-10.57.35-21 .88-31.21 4.59-9.68 3.53-17.82 9.22-25.68 15.51zM761.86 453.79c.57-2.79 3.13-2.79 5.06-3.3 14-3.7 26.23-10.86 38.47-18.26 3.68-2.22 6.39-6.57 11.48-6.28a152.59 152.59 0 0 1-50.7 26.82c-1.4.44-2.87.69-4.31 1.02zM648.21 456.09c6.42-.61 12.34 2 18.54 2.88a286.75 286.75 0 0 0 36.08 2.93 27.28 27.28 0 0 1 7.85 1c-21.3 2.1-42.02-1.13-62.47-6.81zM791.53 204.78a5.6 5.6 0 0 1-3.83-.55c-12.09-7.16-24.79-13.27-36.46-21.13-2.46-1.66-6.57-.94-7.4-5a487.83 487.83 0 0 1 47.69 26.68zM1238.86 554.7c5.77-2.28 11.52 0 17.1.65 11.47 1.38 23 2.11 34.46 3.54 4.42.55 8.83 1.49 13.34 1.09a1.85 1.85 0 0 1 2.08 1.71c-22.35-2.1-44.72-4.07-66.98-6.99zM424.88 554.58c1.06-2.82 3.54-2.69 5.84-2.62 13.31.4 26.33-2.16 39.44-3.79 3.83-.48 7.9-1.16 11.7.67-12.55 1.33-25.09 2.7-37.65 4-6.43.65-12.89 1.16-19.33 1.74zM731.78 38.18c3.49-2.91 7.15-.38 10.36.27 12 2.4 22.8 7.84 32.63 15.12 1.27.94 2.83 1.89 2.73 3.89C764 47 748.83 40.32 731.78 38.18zM262.06 1034.82c-.13 3 0 6-3.8 6.09-3.34 0-5.76-1.41-5.72-5.32 0-3.21 1.09-5.61 4.64-5.87 3.82-.28 4.71 2.28 4.88 5.1zM1142.15 1035.66c0-3.44 1.28-5.63 4.58-5.71s4.73 2.37 4.8 5.17-1.08 5.45-4.52 5.24c-2.91-.18-5.01-1.72-4.86-4.7zM1355.59 1035.24c0-3.7 2-5.19 5.07-5.06 2.61.12 5.45 1 5 4.17-.33 2.53-.77 6-4.82 5.73-3.01-.23-5.53-1.34-5.25-4.84zM891 622.14c4.56-6.54 12-9.52 17.84-14.55 5-4.29 10.57-7.69 17.32-8.57zM827 418.08a3.44 3.44 0 0 1 1.35-3.41c8.41-7 14.39-16.12 20.71-24.92 1-1.46 1.49-3.9 4.18-3.54-7.59 11.62-14.85 23.47-26.24 31.87zM1449.9 1032.62c-.2 4.59-1.67 6.85-5 7s-3.77-2.72-3.83-5.17c-.09-3.36 2.34-4.52 5.2-4.64s3.64 1.71 3.63 2.81zM878.94 1035.06c-.13 3.13-.06 5.91-4.08 5.71-3.72-.19-4.07-2.75-4.09-5.54s.94-4.78 4.29-4.71 4.1 2.12 3.88 4.54zM859 652.08c1.08-8 7.47-11.86 13.1-16.17 2.07-1.59 3.48-4.69 6.95-3.86-7.26 6.13-13.38 13.37-20.05 20.03zM1183.86 549.71c.94-.91 2.13-.78 3.29-.78 12.22 0 24.28 2 36.41 3.19.46 0 .86.86 1.29 1.32zM490.88 548.28c2.37-2.09 5.4-2.07 8.24-2.29 7.25-.56 14.6.82 21.82-1 1.35-.34 2.71 0 2.94 1.8zM204.77 57.8c.44 3.09-2.61 3.67-4.09 5.16-4.5 4.56-9.47 8.65-14.23 13a4.21 4.21 0 0 1-3.71 1 93.62 93.62 0 0 1 22.03-19.16zM777.57 327.11c4.16 2 4.34 6.45 5.65 9.93 2.53 6.72 4.21 13.75 1.52 21 .26-10.94-1.88-21.3-7.17-30.93zM214.85 213.81c-.76-8 1.92-15.75 2.29-23.69.07-1.48.22-3.87 2.76-4.16-1.18 6.33-2.08 12.73-3.65 19-.74 2.93 1.38 6.29-1.4 8.85zM712.89 462.82c4-3.19 8.94-1.72 13.39-2.34 7.13-1 14-3.83 21.35-3.21-11.39 3.02-22.88 5.46-34.74 5.55zM1049.83 555.54c1.72-2.57 5-3.19 7.21-3.25 7.62-.21 15.11-2.1 22.76-1.47z"/><path d="M182.78 76.81c0 .66.29 1.56 0 1.94-4.21 4.89-7.88 10.38-14.06 13.16 3.77-5.86 7.98-11.35 14.06-15.1zM1382.83 513.11c-.24 1.4-1.17 1.82-2.46 1.82h-19.14c-1.32 0-2.2-.49-2.4-1.88zM1336.81 512c-1.47 1.61-3.41.9-5.15.95-5.94.18-11.78-1.57-17.75-1a1.86 1.86 0 0 1-2.09-1.68zM1014.92 507.6c-1.5 2.81-4.55 2.5-6.93 3.06-7.33 1.72-14.08 5.43-21.67 6.14 9.12-4.34 18.91-6.63 28.6-9.2zM798.83 604c-2.57.47-3.52-1.66-4.53-3.18-2.84-4.28-7.75-7.25-8.34-13A83.52 83.52 0 0 1 798.83 604zM784.6 360.23c1.18 8.9-1.61 16.65-6.89 23.67 3.21-7.63 5.11-15.63 6.89-23.67zM232 144.21c.36-6.25 2.38-11.77 7.13-16.09-2.13 5.5-3.6 11.25-7.13 16.09zM905.79 561.82c-1.43 5.73-7.65 6.92-10.63 11.23-1.2 1.74-2.84 3.32-5.38 2.83a83.44 83.44 0 0 1 16.01-14.06zM716.67 279c7.22 1.62 13.57 4.72 18.21 10.72zM1107.83 548.47c.29-.85.81-1.54 1.75-1.48 6.07.38 12.2-1.08 18.2.77zM1356.87 11.16l1 25.92c-1.55.44-2.07-.31-2.09-1.75-.11-7.57-.25-15.13-.36-22.7-.02-.93.39-1.55 1.45-1.47zM737.44 595.41c6.19 2 12.91 3 16.32 9.68zM539.91 546.83c6.37-1 12.76-2.4 19 .76a127.88 127.88 0 0 1-19-.76zM763.87 311c5.34 1.08 10.78 7.25 11.74 13.29zM648.89 21.1c-4.31 5-9.9 7.86-16 9.88 4.93-3.9 9.99-7.67 16-9.88zM689.49 263.41c6.44 1.44 12.24 4 16.4 9.42a132.58 132.58 0 0 1-16.4-9.42zM1035.85 502.53c-1.73 2.46-4.49 2.15-7 2.57-4.61.79-9 2.74-13.79 2.57a92.76 92.76 0 0 1 20.79-5.14z"/><path d="M753.7 605.05c6.15.38 10.14 3.92 13.13 8.94zM769.7 396.37c-1.67 5.13-4.31 9.3-10.17 10.28zM751.55 301.25c5.31 1.71 9.82 4.43 12.31 9.71-4.22-3.08-8.62-5.96-12.31-9.71zM630.9 451.85c6.31-1.12 11.57 2 17 4.27-5.84-.61-11.42-2.44-17-4.27zM1085.83 550.25c5.22-1.63 10.43-3.34 16-1.45a106.77 106.77 0 0 1-16 1.45zM777.77 383.81c-.86 5.16-2.34 9.93-7.78 12.15q3.89-6.07 7.78-12.15zM203.76 914.29v-11.38a11.51 11.51 0 0 1 2.2 10.87 2 2 0 0 0-2.2.51zM214 250.05c-1.74-4.37-2-8.73 0-13.08v13.08zM1354.81 513c-4.07 1.14-8.16 2.5-12-.72zM220.11 184.09c-.79-4.11-.19-7.89 2.69-11.12-.04 3.92-1.5 7.49-2.69 11.12zM926.85 598.65c1.83-4.43 5-6.33 9.82-5.39a52.67 52.67 0 0 1-9.82 5.39zM1147.87 547.72c4-1 8.08-1.84 12 .53a55.14 55.14 0 0 1-12-.53zM1169.9 548.75c3.41-.87 6.85-2.18 9.95.79a32.31 32.31 0 0 1-9.95-.79zM1538.82 490.11c-2.76 2.51-5.8 4.29-9.75 3.59a31.81 31.81 0 0 1 9.75-3.59zM726.08 589.23c3.84-.16 7 .87 8.8 4.66a29.19 29.19 0 0 1-8.8-4.66zM784.78 64.05c3.51 1 6 3 6.06 7z"/><path d="M759.58 406.61a8.47 8.47 0 0 1-8.11 5.93 40.69 40.69 0 0 1 8.11-5.93zM615.93 215c3.15.31 6.11.83 5.92 5.05a19.54 19.54 0 0 1-5.92-5.05zM807 214.87c-3.7-.16-6.43-1.77-7.88-5.28a26.85 26.85 0 0 1 7.88 5.28zM1226.88 553.59c3.07-.58 6.23-2.07 9 .86zM881 630.15c.1-3.29 2-4.37 5-4.08a8.46 8.46 0 0 1-5 4.08zM777.46 57.43c3.42-.33 4.7 1.82 5.38 4.65z"/><path d="M621.85 220c3.11-.08 5 1.32 5.56 4.46a19.06 19.06 0 0 1-5.56-4.46zM735.46 290.08c2.83-.36 4.74.68 5.42 3.57a14.81 14.81 0 0 1-5.42-3.57zM222.9 172c.17-2.15-.74-4.65 1.92-6-.26 2.1-.21 4.32-1.92 6zM741.56 294.06c2.9-.33 4.75.84 5.35 3.77a14.6 14.6 0 0 1-5.35-3.77zM225 165.24c.06-2.24-.89-4.78 1.81-6.26-.63 2.08.24 4.6-1.81 6.26zM820.11 423.3c.95-2.33 2-4.54 5.19-3.83a12.64 12.64 0 0 1-5.19 3.83zM744.61 416.52c-1.49 2.88-3.88 3.81-7 3.23zM710.51 275.32c2.57-.16 4.65.49 5.37 3.32a12.79 12.79 0 0 1-5.37-3.32zM980.87 518.89c-1.71 2.89-4.44 3.21-7.4 2.93a20.83 20.83 0 0 1 7.4-2.93zM240 126.25c0-2.55-.69-5.49 3.13-6.11a12.23 12.23 0 0 1-3.13 6.11zM214.68 226.91c-1.14-1.75-1.33-3.44.32-5-.1 1.67-.21 3.33-.32 5zM911.84 556.87c-.49 2.43-1.39 4.32-4.45 3.46zM753.86 455.86c1-3 3-2.07 5-1.2-1.64.63-3.2 1.41-5 1.2zM747 297.9c2.37 0 4.13.87 4.62 3.42a12.57 12.57 0 0 1-4.62-3.42zM230 149.2c-.19-1.77 0-3.37 1.88-4.22-.39 1.52.17 3.46-1.88 4.22zM799.19 209.65c-2.15.23-3.88-.21-4.31-2.71a10.18 10.18 0 0 1 4.31 2.71z"/><path d="M816.87 426c.17-2 1.12-3.13 3.31-2.71a6.15 6.15 0 0 1-3.31 2.71zM887 625.15c-.15-2.33 1.42-2.23 3-2.13a2.71 2.71 0 0 1-3 2.13zM751.52 412.49c-.11 2.58-2 2.43-3.75 2.4a7.24 7.24 0 0 1 3.75-2.4zM626 450.68c1.3-1.09 2.32-1 2.92.71a3.61 3.61 0 0 1-2.92-.71zM706.49 273.08c1.87-.11 3.79-.33 4.11 2.31a7.48 7.48 0 0 1-4.11-2.31zM561.92 547.72c1.39-1.06 2.72-1.31 3.94.24a6.06 6.06 0 0 1-3.94-.24z"/><path d="M747.83 414.85c-.6 1.55-1.64 2.26-3.32 1.75a5.2 5.2 0 0 1 3.32-1.75zM775.53 324.16c1.81.26 2.37 1.38 2.12 3.07a4.83 4.83 0 0 1-2.12-3.07zM809.92 216.93c-1.54.07-3 .09-3-2.1a5 5 0 0 1 3 2.1zM794.9 207c-1.49.06-2.94.05-3-2a5 5 0 0 1 3 2zM791.67 72.05c1.58 0 2.3.72 1.71 2.35a3.6 3.6 0 0 1-1.71-2.35zM229 152.18a2.12 2.12 0 0 1 .9-2.21c.68 1.16.33 1.87-.9 2.21zM228 155.18a2.1 2.1 0 0 1 .89-2.2c.63 1.12.31 1.84-.89 2.2zM226.88 157.93a2.09 2.09 0 0 1 1-2c.87 1.32-.73 1.32-1 2zM734.91 593.91c1.1.14 2.54-.29 2.61 1.56a3.78 3.78 0 0 1-2.61-1.56zM907.31 560.38c.27 1.33-.62 1.44-1.56 1.49zM1189.11 921.89c.55.17 1.23.22 1.23 1s-.68.85-1.22 1c0-.64-.01-1.32-.01-2zM983.78 517.72c-.52 1.16-1.53 1.15-2.57 1.07a2.89 2.89 0 0 1 2.57-1.07z"/><path d="M985.85 517a1.92 1.92 0 0 1-2.19.82 2.22 2.22 0 0 1 2.19-.82zM1389.81 513c-.64 1-1.3 1-2 0zM749.88 456.86c.7-.91 1.67-.86 2.67-.74a2.71 2.71 0 0 1-2.67.74zM576.86 321.05c-.71.92-1.68.86-2.68.72a3 3 0 0 1 2.68-.72zM737.77 419.67c-.53 1.25-1.56 1.22-2.66 1a3.39 3.39 0 0 1 2.66-1zM825.32 419.46c-.14-1.3.72-1.42 1.68-1.42zM651.77 19.73c-.4 1.17-1.35 1.21-2.35 1.14a3 3 0 0 1 2.35-1.14zM784 585.84l-1.08-1.1zM785 586.85c-.35-.37-.71-.73-1.07-1.1zM786 587.86l-1.07-1.09zM1189.12 897a3.06 3.06 0 0 1 .25.63c0 .06-.18.16-.28.24a.58.58 0 0 1 .03-.87zM239 128.19c.28-.41.55-.82.83-1.22.25.74-.16 1.03-.83 1.22zM243.05 120.2l.84-1.22c.2.74-.21 1.02-.84 1.22zM936.83 593.25c.14-.57.29-1.16 1-.45zM783.76 63l1.07 1.07zM889.93 623.08l1.14-1zM886 626.13l1.11-1.07zM880 631.14l1.13-1.07zM879 632.11l1.12-1.06zM1136.8 868.94l-.06-1.14 1.14.06c.47 1.19-.15 1.28-1.08 1.08z"/><path d="M1137.8 867.94l-.06-1.15 1.15.07c.24.96.11 1.52-1.09 1.08z"/><path d="M1138.8 866.94l-.06-1.15 1.15.07c.18.91.01 1.46-1.09 1.08z"/></svg>